<svg version="1.1" id="Layer_1" xmlns="http://www.w3.org/2000/svg" xmlns:xlink="http://www.w3.org/1999/xlink" x="0px" y="0px"
	 width="100%" viewBox="0 0 1562 400" enable-background="new 0 0 1562 400" xml:space="preserve">
<path fill="#000000" opacity="1.000000" stroke="none" 
	d="
M1148.000000,401.000000 
	C765.382019,401.000000 383.263977,401.000000 1.072984,401.000000 
	C1.072984,267.732330 1.072984,134.464615 1.072984,1.098447 
	C521.666687,1.098447 1042.333374,1.098447 1562.973389,1.098447 
	C1562.973389,134.402786 1562.973389,267.701385 1562.973389,401.000000 
	C1424.797852,401.000000 1286.648926,401.000000 1148.000000,401.000000 
M302.503784,272.985840 
	C306.087555,267.083252 310.233063,261.444519 313.151886,255.229675 
	C322.665161,234.973999 327.272003,213.816238 325.156128,191.181564 
	C323.708893,175.699692 320.271393,160.908691 313.439697,147.053619 
	C304.703003,129.335144 292.605957,114.283493 276.768372,102.180389 
	C249.345123,81.223518 218.481339,73.022255 184.473618,77.148773 
	C167.425156,79.217445 151.425446,85.113365 136.633041,94.035072 
	C117.079247,105.828484 101.687180,121.718842 91.112030,141.886185 
	C79.845406,163.372223 74.688095,186.209869 76.848389,210.727951 
	C78.243866,226.565872 82.027489,241.543716 89.023857,255.699677 
	C97.196243,272.235107 108.066757,286.841949 122.794014,298.060333 
	C130.565689,303.980347 138.848465,309.626160 147.697861,313.635895 
	C159.209045,318.851685 171.294434,322.569366 184.129532,324.329773 
	C197.476288,326.160309 210.562851,325.810028 223.571304,323.583405 
	C236.726105,321.331726 249.162460,316.546814 260.941742,310.049591 
	C277.425629,300.957428 290.848022,288.547546 302.503784,272.985840 
M1233.001465,207.500000 
	C1233.001465,231.592270 1233.001465,255.684540 1233.001465,279.994873 
	C1250.878906,279.994873 1268.194824,280.326538 1285.489258,279.861053 
	C1294.745605,279.611908 1304.174438,278.891510 1313.157837,276.802765 
	C1333.110962,272.163330 1348.441406,260.748901 1357.916382,242.306549 
	C1366.931030,224.760284 1367.364624,205.996445 1365.034546,186.921509 
	C1362.912720,169.551102 1355.412476,155.212051 1342.182739,143.532455 
	C1328.853149,131.764709 1312.908325,126.965950 1295.931030,126.234108 
	C1274.641846,125.316383 1253.282837,125.979958 1231.954590,126.081970 
	C1230.331665,126.089737 1227.583130,126.754440 1227.342285,127.648415 
	C1226.918335,129.222244 1227.588989,131.504776 1228.575684,132.968613 
	C1231.778076,137.719727 1233.096680,142.796768 1233.055054,148.512756 
	C1232.914429,167.840942 1233.001465,187.170792 1233.001465,207.500000 
M539.026794,170.486816 
	C536.436829,171.915939 533.846924,173.345062 530.990845,174.921036 
	C530.990845,158.373505 530.930664,142.383347 531.042480,126.394402 
	C531.064392,123.259796 530.239502,121.881363 526.837830,121.940163 
	C517.013428,122.110008 507.183533,121.948067 497.357635,122.068443 
	C496.168732,122.083015 494.343170,122.748810 493.968994,123.613281 
	C493.478180,124.747169 493.615967,126.826454 494.386597,127.720772 
	C498.520996,132.518463 499.116425,138.031616 499.095337,144.097015 
	C498.944397,187.570023 499.014618,231.043777 499.014618,274.517303 
	C499.014618,276.278564 499.014618,278.039856 499.014618,279.995026 
	C508.419312,279.995026 517.234741,279.797272 526.034546,280.082855 
	C530.111877,280.215179 531.098145,278.780731 531.069946,274.902985 
	C530.907715,252.584442 530.990906,230.264084 530.990906,207.944351 
	C530.990906,196.400909 532.266602,194.661240 543.502991,190.999985 
	C545.465576,190.360489 547.422485,189.536621 549.443970,189.272675 
	C560.642090,187.810547 571.300476,191.020096 571.076477,205.883804 
	C570.795471,224.534866 571.008972,243.193390 571.009094,261.848694 
	C571.009094,267.792053 571.009094,273.735382 571.009094,279.994995 
	C580.432495,279.994995 589.396301,279.823425 598.348267,280.074402 
	C602.256653,280.183960 603.065796,278.637756 603.049072,275.084961 
	C602.929382,249.601044 603.214233,224.113297 602.877930,198.633255 
	C602.737549,188.000916 597.976440,178.957703 589.016174,173.111664 
	C573.305725,162.861588 556.681702,161.933533 539.026794,170.486816 
M846.998535,213.502548 
	C846.998535,212.002869 846.998596,210.503174 846.998596,209.003494 
	C846.998596,195.866653 847.548706,195.133240 860.453491,190.942978 
	C862.111206,190.404709 863.711365,189.516998 865.405090,189.289566 
	C876.631531,187.782196 887.286499,191.053131 887.081116,205.848465 
	C886.808167,225.506897 887.013855,245.171982 887.013916,264.834198 
	C887.013916,269.781342 887.013977,274.728485 887.013977,279.994965 
	C895.938843,279.994965 904.411133,279.748962 912.859436,280.091980 
	C917.540466,280.282013 919.159424,279.076080 919.106201,274.069366 
	C918.842407,249.244461 919.037720,224.414963 918.920776,199.587799 
	C918.905701,196.390457 918.475952,193.040787 917.454651,190.027252 
	C910.348755,169.060211 888.566101,162.380875 869.194702,165.595352 
	C861.532959,166.866760 854.354309,171.049438 846.998474,173.890015 
	C846.998474,158.509979 846.920105,142.543900 847.060669,126.579758 
	C847.090881,123.148087 846.100464,121.853317 842.525513,121.931541 
	C833.198792,122.135628 823.862244,121.892120 814.535522,122.097542 
	C812.808594,122.135582 810.865906,123.160660 809.541260,124.321747 
	C809.125671,124.685997 810.081726,127.248566 810.970642,128.354248 
	C814.208557,132.381897 815.101379,136.855011 815.086426,141.959641 
	C814.957153,186.115936 815.011780,230.272797 815.011719,274.429474 
	C815.011719,276.199768 815.011719,277.970032 815.011719,279.994965 
	C824.347229,279.994965 833.157043,279.811127 841.953308,280.078247 
	C845.913696,280.198517 847.120605,278.987427 847.083801,274.987366 
	C846.898071,254.826981 846.998535,234.663940 846.998535,213.502548 
M479.987854,232.772369 
	C478.743500,218.788940 471.634491,208.220932 459.959167,201.136734 
	C449.118652,194.559036 437.498016,189.280289 426.484802,182.969025 
	C419.978516,179.240509 412.595947,176.019516 409.746338,168.196121 
	C405.379547,156.207382 407.632843,146.492584 420.407532,143.376968 
	C424.490845,142.381073 428.989655,142.932205 433.292938,143.025467 
	C444.630066,143.271133 454.042572,148.229401 462.751068,155.062469 
	C464.210052,156.207260 466.776245,157.091476 468.343445,156.585693 
	C469.609680,156.177078 470.623138,153.566330 470.888916,151.802902 
	C471.306335,149.032990 471.000458,146.154037 471.000488,143.321259 
	C471.000549,127.574776 471.104492,127.141655 455.687653,123.439430 
	C437.090942,118.973579 418.423828,117.569687 399.711090,123.921867 
	C373.666199,132.762985 367.900116,161.451187 380.080475,181.545502 
	C387.435089,193.678665 398.607422,201.411636 410.763336,207.953659 
	C420.231171,213.049011 429.952728,217.698441 439.232208,223.110611 
	C447.322937,227.829453 450.419586,245.920059 441.851837,252.755859 
	C437.108093,256.540680 431.960907,258.781464 425.981079,258.990326 
	C408.506683,259.600861 392.995514,253.891953 378.539978,243.908661 
	C376.352203,249.415512 373.549286,254.727676 372.312805,260.382385 
	C371.766022,262.882782 373.573608,267.177887 375.716095,268.773163 
	C387.297119,277.396545 401.098969,280.380249 415.059937,281.826752 
	C426.164429,282.977295 437.412689,282.182678 448.218872,278.934723 
	C461.223907,275.025909 471.868103,268.163544 477.618530,255.014694 
	C480.676666,248.021957 479.753265,240.870605 479.987854,232.772369 
M1385.362671,246.177094 
	C1383.250244,251.162247 1381.254272,256.201172 1378.985107,261.113892 
	C1377.441162,264.456085 1378.006104,267.342926 1380.877808,269.232208 
	C1385.681396,272.392487 1390.526611,275.726288 1395.805420,277.883423 
	C1412.062744,284.527008 1429.100464,285.561401 1446.287964,282.900330 
	C1459.126465,280.912598 1470.406372,275.952728 1479.211304,265.520203 
	C1489.376343,253.475876 1488.997437,229.396088 1480.920776,217.486099 
	C1475.110474,208.918060 1467.177124,202.774887 1458.071045,197.998138 
	C1445.256348,191.275757 1431.598755,186.093857 1420.498047,176.277863 
	C1413.894897,170.438904 1410.948364,155.857224 1419.214233,149.270218 
	C1427.099854,142.986160 1436.242065,144.613937 1445.048584,145.630035 
	C1454.562744,146.727753 1462.371582,152.012039 1470.026001,157.425552 
	C1471.276611,158.310089 1473.613281,158.995270 1474.708984,158.403717 
	C1475.914551,157.752869 1476.836182,155.540848 1476.891113,153.974258 
	C1477.124512,147.319839 1476.944092,140.652069 1477.012207,133.990158 
	C1477.042114,131.076248 1475.937378,129.562469 1472.912354,128.916397 
	C1464.437866,127.106438 1456.118652,124.369774 1447.573975,123.131790 
	C1432.952881,121.013428 1418.477539,120.796165 1404.271973,126.844513 
	C1381.715454,136.448532 1377.413208,155.879410 1382.721802,174.939011 
	C1385.961670,186.571350 1393.785156,195.848984 1404.465942,201.978561 
	C1416.988892,209.165268 1429.770874,215.899780 1442.421997,222.863953 
	C1450.971802,227.570450 1455.243164,237.425690 1452.887329,247.225555 
	C1450.650146,256.531311 1442.875610,260.200592 1433.909058,260.898163 
	C1416.214111,262.274750 1400.448730,256.435883 1385.362671,246.177094 
M998.215820,165.013504 
	C982.578552,164.295731 967.285828,166.142929 952.362122,170.986191 
	C948.593689,172.209183 946.428772,173.918213 946.895630,178.489563 
	C947.417603,183.600235 946.945679,188.806564 947.034912,193.969009 
	C947.117493,198.741196 950.415894,200.264999 954.666077,197.872787 
	C959.402893,195.206711 964.165039,192.485504 969.181641,190.438782 
	C978.084717,186.806335 987.343384,185.668289 996.868835,187.966537 
	C1001.530151,189.091187 1005.496155,192.876099 1005.932190,197.580154 
	C1006.277710,201.308212 1006.001709,205.093842 1006.001709,208.509232 
	C994.328613,209.028625 983.233643,209.091232 972.233093,210.142044 
	C962.666565,211.055878 953.643738,214.287521 946.495850,221.097946 
	C937.094238,230.055710 934.722900,241.632248 936.191040,253.875961 
	C937.144714,261.829163 940.709534,269.392426 947.104065,274.383972 
	C959.195862,283.822571 973.211182,285.718048 987.541931,280.845795 
	C994.483765,278.485687 1000.689209,273.959747 1007.145142,270.459320 
	C1007.145142,272.931152 1007.145142,276.334808 1007.145142,279.994995 
	C1015.810730,279.994995 1024.119873,279.771912 1032.408813,280.086395 
	C1036.742432,280.250793 1038.129761,279.017517 1038.092163,274.527435 
	C1037.881348,249.375488 1037.622681,224.213470 1038.130249,199.070007 
	C1038.421143,184.657120 1026.307373,171.884247 1016.010254,169.024384 
	C1010.449280,167.479874 1004.777771,166.333191 998.215820,165.013504 
M1165.984497,276.176208 
	C1165.984619,251.686279 1165.947998,227.196259 1165.999878,202.706436 
	C1166.026367,190.193695 1161.294312,180.194168 1151.175049,172.627747 
	C1140.043823,164.304596 1117.301147,161.612808 1105.214600,169.962982 
	C1101.299438,172.667877 1097.238525,175.161865 1093.000366,177.910431 
	C1093.000366,176.647552 1092.886353,175.796936 1093.019043,174.986725 
	C1093.820312,170.096100 1091.731323,168.696533 1086.942627,168.895203 
	C1078.128052,169.260864 1069.286011,168.922989 1060.459351,169.084625 
	C1059.172363,169.108200 1057.278076,169.975800 1056.805908,170.986115 
	C1056.328247,172.008118 1056.857300,174.018127 1057.659302,175.028900 
	C1060.711670,178.875854 1062.101074,183.003113 1062.074707,188.003876 
	C1061.921509,216.991165 1062.070435,245.980057 1061.917114,274.967346 
	C1061.896118,278.936676 1063.032227,280.239807 1067.023315,280.077026 
	C1074.175171,279.785278 1081.360596,279.733368 1088.506470,280.090179 
	C1092.983032,280.313690 1094.130737,278.790680 1094.094604,274.436188 
	C1093.896484,250.614288 1094.081787,226.789291 1093.911011,202.966949 
	C1093.885864,199.455017 1094.632324,196.493027 1097.618042,195.010834 
	C1102.432617,192.620728 1107.393311,190.128448 1112.580688,188.963760 
	C1125.679688,186.022781 1134.297485,191.902817 1134.076172,205.328857 
	C1133.804321,221.817596 1134.011597,238.314255 1134.011841,254.807480 
	C1134.011963,263.087006 1134.011841,271.366547 1134.011841,279.993164 
	C1143.905640,279.993164 1153.364624,280.085205 1162.816406,279.866577 
	C1163.892456,279.841675 1164.928223,278.073395 1165.984497,276.176208 
M791.000366,242.500000 
	C791.000366,230.000122 791.128479,217.498627 790.969238,205.000778 
	C790.749573,187.755310 783.913940,174.364777 766.461548,167.997467 
	C753.056091,163.106659 739.809814,163.056366 727.394226,171.245285 
	C724.298462,173.287170 721.320312,175.507477 718.053467,177.811203 
	C717.790771,168.342682 719.445190,169.000717 709.708435,168.999710 
	C701.875122,168.998901 694.040466,168.922287 686.209656,169.061508 
	C684.543213,169.091156 681.535889,169.787949 681.482422,170.386093 
	C681.312805,172.284607 681.669067,174.796234 682.866089,176.142273 
	C686.162354,179.848770 687.053223,184.026031 687.043030,188.749115 
	C686.985901,215.415558 687.015503,242.082184 687.015564,268.748749 
	C687.015564,272.371582 687.015564,275.994446 687.015564,279.994781 
	C696.210022,279.994781 705.008667,279.763336 713.786316,280.093140 
	C718.125916,280.256165 719.099854,278.708160 719.072510,274.644501 
	C718.907959,250.145691 718.994324,225.645233 718.984863,201.145325 
	C718.983948,198.840546 719.372803,197.362091 721.590759,195.508545 
	C726.837769,191.123611 732.911682,189.442215 739.178894,188.080200 
	C746.720642,186.441162 755.146118,190.485474 757.289551,196.926163 
	C758.445435,200.399368 758.904175,204.247330 758.927917,207.931046 
	C759.071777,230.263382 758.999634,252.597076 758.999634,274.930328 
	C758.999634,276.534576 758.999634,278.138794 758.999634,279.994263 
	C768.832886,279.994263 778.139709,279.908600 787.443542,280.038422 
	C790.932068,280.087128 791.039001,278.078186 791.024841,275.499756 
	C790.966492,264.833435 791.000366,254.166626 791.000366,242.500000 
M628.000000,232.500000 
	C628.000000,246.825821 628.092590,261.152679 627.933777,275.476746 
	C627.894897,278.985260 629.030212,280.150787 632.530457,280.059937 
	C640.520874,279.852692 648.524414,279.846008 656.514343,280.062256 
	C660.073059,280.158569 661.070984,278.878754 661.060730,275.432404 
	C660.960144,241.450500 660.956177,207.468048 661.065002,173.486191 
	C661.076355,169.939011 659.890747,168.870743 656.436646,168.936264 
	C646.778503,169.119446 637.112305,168.888214 627.455078,169.093765 
	C625.509766,169.135147 623.590149,170.380295 621.515259,171.121704 
	C628.000000,183.126556 628.000000,183.126556 628.000000,191.520935 
	C628.000000,204.847290 628.000000,218.173645 628.000000,232.500000 
M624.876465,126.636101 
	C624.584961,130.995316 623.524536,135.470749 624.162354,139.689468 
	C625.478149,148.393692 632.070618,152.506821 639.964233,153.817093 
	C646.917297,154.971268 653.238953,152.241257 657.641113,146.646988 
	C662.621033,140.318619 663.242371,132.959824 659.826416,125.802910 
	C656.507690,118.849770 650.389160,115.100410 642.687561,115.107651 
	C634.856384,115.115005 628.669800,118.594360 624.876465,126.636101 
z"/>
<path fill="#FFFFFF" opacity="1.000000" stroke="none" 
	d="
M302.247101,273.250702 
	C290.848022,288.547546 277.425629,300.957428 260.941742,310.049591 
	C249.162460,316.546814 236.726105,321.331726 223.571304,323.583405 
	C210.562851,325.810028 197.476288,326.160309 184.129532,324.329773 
	C171.294434,322.569366 159.209045,318.851685 147.697861,313.635895 
	C138.848465,309.626160 130.565689,303.980347 122.794014,298.060333 
	C108.066757,286.841949 97.196243,272.235107 89.023857,255.699677 
	C82.027489,241.543716 78.243866,226.565872 76.848389,210.727951 
	C74.688095,186.209869 79.845406,163.372223 91.112030,141.886185 
	C101.687180,121.718842 117.079247,105.828484 136.633041,94.035072 
	C151.425446,85.113365 167.425156,79.217445 184.473618,77.148773 
	C218.481339,73.022255 249.345123,81.223518 276.768372,102.180389 
	C292.605957,114.283493 304.703003,129.335144 313.439697,147.053619 
	C320.271393,160.908691 323.708893,175.699692 325.156128,191.181564 
	C327.272003,213.816238 322.665161,234.973999 313.151886,255.229675 
	C310.233063,261.444519 306.087555,267.083252 302.247101,273.250702 
M201.961029,229.453781 
	C203.479431,230.348862 204.985214,231.266159 206.518219,232.135468 
	C217.961990,238.624710 229.426819,244.939896 238.544739,254.870499 
	C245.953583,262.939697 248.819199,275.592346 243.163757,285.372620 
	C241.272751,288.642853 239.388260,291.916809 236.736832,296.513550 
	C239.887543,295.766632 241.709991,295.721069 243.121658,294.936432 
	C251.500916,290.279205 259.686432,285.328461 265.310303,277.203705 
	C271.104095,268.833527 273.158295,259.795776 271.285095,249.623215 
	C268.726715,235.729523 259.973236,226.210327 248.896851,219.173523 
	C231.290955,207.988480 212.906067,198.035248 194.943253,187.404556 
	C181.786591,179.618271 168.766434,171.598801 159.466125,158.968185 
	C154.732025,152.538849 151.570419,145.151474 152.233917,137.384216 
	C153.347275,124.350708 160.600754,114.497948 171.376053,107.200371 
	C173.147781,106.000458 174.727417,104.516884 176.395844,103.164413 
	C176.205338,102.766792 176.014816,102.369164 175.824310,101.971542 
	C174.278290,102.104591 172.593246,101.885612 171.210358,102.431740 
	C165.288376,104.770416 159.205444,106.874657 153.636353,109.901733 
	C136.110977,119.427658 124.927513,137.007889 126.862892,158.131943 
	C127.990776,170.442490 133.660767,180.306824 141.573349,188.924072 
	C158.211441,207.043854 180.046509,217.679871 201.961029,229.453781 
M212.987839,123.889877 
	C212.680679,126.804054 212.435349,129.726334 212.054977,132.630920 
	C210.828644,141.995132 208.769257,151.255447 210.913132,160.833069 
	C212.827652,169.386032 218.993210,178.095459 230.075699,177.125732 
	C237.287582,176.494705 244.243820,168.187866 238.624344,160.873352 
	C236.676300,158.337723 235.869461,154.765091 235.098846,151.533188 
	C234.417465,148.675400 235.193848,146.342270 238.434982,144.760223 
	C241.747040,143.143555 243.636215,144.845474 245.160492,146.801895 
	C248.320480,150.857742 251.256805,155.126755 253.893372,159.542038 
	C257.538025,165.645508 261.921387,168.238678 266.260712,166.244370 
	C271.619873,163.781342 277.426849,157.213501 275.948547,148.418610 
	C274.874756,142.030228 269.835938,140.366043 264.250854,138.791443 
	C259.819092,137.542038 254.574905,136.861191 251.997574,131.927917 
	C250.362717,128.798599 251.442307,126.638992 254.867462,127.124855 
	C257.812469,127.542610 260.571533,129.149567 263.478882,130.006622 
	C264.913177,130.429459 267.405212,130.971313 267.824158,130.362381 
	C268.704529,129.082672 268.924561,127.015991 268.666351,125.391441 
	C268.461517,124.102692 267.274139,122.866913 266.295013,121.821068 
	C259.623566,114.694817 251.001877,111.880035 241.603989,111.010078 
	C233.132080,110.225845 224.624451,109.802986 216.166672,108.901085 
	C212.187485,108.476768 208.288315,107.302200 203.491623,106.284950 
	C207.173264,112.771454 210.080002,117.892670 212.987839,123.889877 
M117.989403,252.394318 
	C118.950211,254.426834 119.943939,256.444519 120.866585,258.494232 
	C128.012192,274.368469 139.662262,285.544342 155.317612,293.172089 
	C165.539078,298.152283 176.298538,300.508606 187.310852,301.831207 
	C192.758911,302.485565 198.432785,301.483795 203.975204,300.935303 
	C205.053177,300.828644 205.995712,299.353485 207.000717,298.509552 
	C206.124191,297.698608 205.383255,296.535522 204.347961,296.136932 
	C199.572495,294.298279 194.700363,292.712952 189.890167,290.961884 
	C180.761368,287.638641 179.700104,283.756134 184.813583,275.553375 
	C187.873444,270.644897 191.783005,265.791901 190.804077,258.762390 
	C188.612961,259.077667 186.638763,259.118134 184.819138,259.669128 
	C179.307526,261.337982 173.862198,263.224518 168.379166,264.989349 
	C161.132217,267.321899 159.695938,266.017273 158.898254,258.433990 
	C158.278000,252.537476 156.943268,246.661636 155.334686,240.942963 
	C154.284576,237.209686 151.411377,236.904572 149.054642,240.037216 
	C147.128754,242.597092 145.659119,245.498672 143.966141,248.235733 
	C142.361267,250.830444 140.729065,253.408234 138.598221,256.808228 
	C135.646835,254.340851 132.865326,252.629410 130.908966,250.241806 
	C127.648399,246.262589 125.104706,241.698746 121.877296,237.688370 
	C120.399414,235.851974 118.014137,234.745789 116.040375,233.308456 
	C115.361221,233.796906 114.682060,234.285339 114.002907,234.773788 
	C115.316933,240.375885 116.630951,245.977982 117.989403,252.394318 
z"/>
<path fill="#FFFFFF" opacity="1.000000" stroke="none" 
	d="
M1233.001465,207.000000 
	C1233.001465,187.170792 1232.914429,167.840942 1233.055054,148.512756 
	C1233.096680,142.796768 1231.778076,137.719727 1228.575684,132.968613 
	C1227.588989,131.504776 1226.918335,129.222244 1227.342285,127.648415 
	C1227.583130,126.754440 1230.331665,126.089737 1231.954590,126.081970 
	C1253.282837,125.979958 1274.641846,125.316383 1295.931030,126.234108 
	C1312.908325,126.965950 1328.853149,131.764709 1342.182739,143.532455 
	C1355.412476,155.212051 1362.912720,169.551102 1365.034546,186.921509 
	C1367.364624,205.996445 1366.931030,224.760284 1357.916382,242.306549 
	C1348.441406,260.748901 1333.110962,272.163330 1313.157837,276.802765 
	C1304.174438,278.891510 1294.745605,279.611908 1285.489258,279.861053 
	C1268.194824,280.326538 1250.878906,279.994873 1233.001465,279.994873 
	C1233.001465,255.684540 1233.001465,231.592270 1233.001465,207.000000 
M1265.984619,194.500000 
	C1265.984619,214.928864 1265.984619,235.357727 1265.984619,256.877838 
	C1278.082642,255.887039 1289.617798,255.569824 1300.929688,253.814651 
	C1309.763550,252.443970 1317.363159,248.118103 1323.223389,240.620819 
	C1330.442749,231.384842 1332.379883,220.746384 1332.880981,209.721786 
	C1333.231812,202.005020 1332.939331,194.148453 1331.867188,186.503967 
	C1330.332642,175.562103 1326.286987,165.755890 1316.685303,158.911087 
	C1301.142090,147.830734 1283.517334,150.379074 1265.984619,150.021027 
	C1265.984619,164.878296 1265.984619,179.189148 1265.984619,194.500000 
z"/>
<path fill="#FEFFFF" opacity="1.000000" stroke="none" 
	d="
M539.344482,170.265289 
	C556.681702,161.933533 573.305725,162.861588 589.016174,173.111664 
	C597.976440,178.957703 602.737549,188.000916 602.877930,198.633255 
	C603.214233,224.113297 602.929382,249.601044 603.049072,275.084961 
	C603.065796,278.637756 602.256653,280.183960 598.348267,280.074402 
	C589.396301,279.823425 580.432495,279.994995 571.009094,279.994995 
	C571.009094,273.735382 571.009094,267.792053 571.009094,261.848694 
	C571.008972,243.193390 570.795471,224.534866 571.076477,205.883804 
	C571.300476,191.020096 560.642090,187.810547 549.443970,189.272675 
	C547.422485,189.536621 545.465576,190.360489 543.502991,190.999985 
	C532.266602,194.661240 530.990906,196.400909 530.990906,207.944351 
	C530.990906,230.264084 530.907715,252.584442 531.069946,274.902985 
	C531.098145,278.780731 530.111877,280.215179 526.034546,280.082855 
	C517.234741,279.797272 508.419312,279.995026 499.014618,279.995026 
	C499.014618,278.039856 499.014618,276.278564 499.014618,274.517303 
	C499.014618,231.043777 498.944397,187.570023 499.095337,144.097015 
	C499.116425,138.031616 498.520996,132.518463 494.386597,127.720772 
	C493.615967,126.826454 493.478180,124.747169 493.968994,123.613281 
	C494.343170,122.748810 496.168732,122.083015 497.357635,122.068443 
	C507.183533,121.948067 517.013428,122.110008 526.837830,121.940163 
	C530.239502,121.881363 531.064392,123.259796 531.042480,126.394402 
	C530.930664,142.383347 530.990845,158.373505 530.990845,174.921036 
	C533.846924,173.345062 536.436829,171.915939 539.344482,170.265289 
z"/>
<path fill="#FEFFFF" opacity="1.000000" stroke="none" 
	d="
M846.998535,214.002197 
	C846.998535,234.663940 846.898071,254.826981 847.083801,274.987366 
	C847.120605,278.987427 845.913696,280.198517 841.953308,280.078247 
	C833.157043,279.811127 824.347229,279.994965 815.011719,279.994965 
	C815.011719,277.970032 815.011719,276.199768 815.011719,274.429474 
	C815.011780,230.272797 814.957153,186.115936 815.086426,141.959641 
	C815.101379,136.855011 814.208557,132.381897 810.970642,128.354248 
	C810.081726,127.248566 809.125671,124.685997 809.541260,124.321747 
	C810.865906,123.160660 812.808594,122.135582 814.535522,122.097542 
	C823.862244,121.892120 833.198792,122.135628 842.525513,121.931541 
	C846.100464,121.853317 847.090881,123.148087 847.060669,126.579758 
	C846.920105,142.543900 846.998474,158.509979 846.998474,173.890015 
	C854.354309,171.049438 861.532959,166.866760 869.194702,165.595352 
	C888.566101,162.380875 910.348755,169.060211 917.454651,190.027252 
	C918.475952,193.040787 918.905701,196.390457 918.920776,199.587799 
	C919.037720,224.414963 918.842407,249.244461 919.106201,274.069366 
	C919.159424,279.076080 917.540466,280.282013 912.859436,280.091980 
	C904.411133,279.748962 895.938843,279.994965 887.013977,279.994965 
	C887.013977,274.728485 887.013916,269.781342 887.013916,264.834198 
	C887.013855,245.171982 886.808167,225.506897 887.081116,205.848465 
	C887.286499,191.053131 876.631531,187.782196 865.405090,189.289566 
	C863.711365,189.516998 862.111206,190.404709 860.453491,190.942978 
	C847.548706,195.133240 846.998596,195.866653 846.998596,209.003494 
	C846.998596,210.503174 846.998535,212.002869 846.998535,214.002197 
z"/>
<path fill="#FFFFFF" opacity="1.000000" stroke="none" 
	d="
M479.988892,233.244705 
	C479.753265,240.870605 480.676666,248.021957 477.618530,255.014694 
	C471.868103,268.163544 461.223907,275.025909 448.218872,278.934723 
	C437.412689,282.182678 426.164429,282.977295 415.059937,281.826752 
	C401.098969,280.380249 387.297119,277.396545 375.716095,268.773163 
	C373.573608,267.177887 371.766022,262.882782 372.312805,260.382385 
	C373.549286,254.727676 376.352203,249.415512 378.539978,243.908661 
	C392.995514,253.891953 408.506683,259.600861 425.981079,258.990326 
	C431.960907,258.781464 437.108093,256.540680 441.851837,252.755859 
	C450.419586,245.920059 447.322937,227.829453 439.232208,223.110611 
	C429.952728,217.698441 420.231171,213.049011 410.763336,207.953659 
	C398.607422,201.411636 387.435089,193.678665 380.080475,181.545502 
	C367.900116,161.451187 373.666199,132.762985 399.711090,123.921867 
	C418.423828,117.569687 437.090942,118.973579 455.687653,123.439430 
	C471.104492,127.141655 471.000549,127.574776 471.000488,143.321259 
	C471.000458,146.154037 471.306335,149.032990 470.888916,151.802902 
	C470.623138,153.566330 469.609680,156.177078 468.343445,156.585693 
	C466.776245,157.091476 464.210052,156.207260 462.751068,155.062469 
	C454.042572,148.229401 444.630066,143.271133 433.292938,143.025467 
	C428.989655,142.932205 424.490845,142.381073 420.407532,143.376968 
	C407.632843,146.492584 405.379547,156.207382 409.746338,168.196121 
	C412.595947,176.019516 419.978516,179.240509 426.484802,182.969025 
	C437.498016,189.280289 449.118652,194.559036 459.959167,201.136734 
	C471.634491,208.220932 478.743500,218.788940 479.988892,233.244705 
z"/>
<path fill="#FFFFFF" opacity="1.000000" stroke="none" 
	d="
M1385.684082,246.365601 
	C1400.448730,256.435883 1416.214111,262.274750 1433.909058,260.898163 
	C1442.875610,260.200592 1450.650146,256.531311 1452.887329,247.225555 
	C1455.243164,237.425690 1450.971802,227.570450 1442.421997,222.863953 
	C1429.770874,215.899780 1416.988892,209.165268 1404.465942,201.978561 
	C1393.785156,195.848984 1385.961670,186.571350 1382.721802,174.939011 
	C1377.413208,155.879410 1381.715454,136.448532 1404.271973,126.844513 
	C1418.477539,120.796165 1432.952881,121.013428 1447.573975,123.131790 
	C1456.118652,124.369774 1464.437866,127.106438 1472.912354,128.916397 
	C1475.937378,129.562469 1477.042114,131.076248 1477.012207,133.990158 
	C1476.944092,140.652069 1477.124512,147.319839 1476.891113,153.974258 
	C1476.836182,155.540848 1475.914551,157.752869 1474.708984,158.403717 
	C1473.613281,158.995270 1471.276611,158.310089 1470.026001,157.425552 
	C1462.371582,152.012039 1454.562744,146.727753 1445.048584,145.630035 
	C1436.242065,144.613937 1427.099854,142.986160 1419.214233,149.270218 
	C1410.948364,155.857224 1413.894897,170.438904 1420.498047,176.277863 
	C1431.598755,186.093857 1445.256348,191.275757 1458.071045,197.998138 
	C1467.177124,202.774887 1475.110474,208.918060 1480.920776,217.486099 
	C1488.997437,229.396088 1489.376343,253.475876 1479.211304,265.520203 
	C1470.406372,275.952728 1459.126465,280.912598 1446.287964,282.900330 
	C1429.100464,285.561401 1412.062744,284.527008 1395.805420,277.883423 
	C1390.526611,275.726288 1385.681396,272.392487 1380.877808,269.232208 
	C1378.006104,267.342926 1377.441162,264.456085 1378.985107,261.113892 
	C1381.254272,256.201172 1383.250244,251.162247 1385.684082,246.365601 
z"/>
<path fill="#FEFFFF" opacity="1.000000" stroke="none" 
	d="
M998.685974,165.010269 
	C1004.777771,166.333191 1010.449280,167.479874 1016.010254,169.024384 
	C1026.307373,171.884247 1038.421143,184.657120 1038.130249,199.070007 
	C1037.622681,224.213470 1037.881348,249.375488 1038.092163,274.527435 
	C1038.129761,279.017517 1036.742432,280.250793 1032.408813,280.086395 
	C1024.119873,279.771912 1015.810730,279.994995 1007.145142,279.994995 
	C1007.145142,276.334808 1007.145142,272.931152 1007.145142,270.459320 
	C1000.689209,273.959747 994.483765,278.485687 987.541931,280.845795 
	C973.211182,285.718048 959.195862,283.822571 947.104065,274.383972 
	C940.709534,269.392426 937.144714,261.829163 936.191040,253.875961 
	C934.722900,241.632248 937.094238,230.055710 946.495850,221.097946 
	C953.643738,214.287521 962.666565,211.055878 972.233093,210.142044 
	C983.233643,209.091232 994.328613,209.028625 1006.001709,208.509232 
	C1006.001709,205.093842 1006.277710,201.308212 1005.932190,197.580154 
	C1005.496155,192.876099 1001.530151,189.091187 996.868835,187.966537 
	C987.343384,185.668289 978.084717,186.806335 969.181641,190.438782 
	C964.165039,192.485504 959.402893,195.206711 954.666077,197.872787 
	C950.415894,200.264999 947.117493,198.741196 947.034912,193.969009 
	C946.945679,188.806564 947.417603,183.600235 946.895630,178.489563 
	C946.428772,173.918213 948.593689,172.209183 952.362122,170.986191 
	C967.285828,166.142929 982.578552,164.295731 998.685974,165.010269 
M976.211548,260.738037 
	C983.214172,261.806061 989.966125,260.620667 995.822754,256.878174 
	C999.656921,254.428131 1004.243774,251.212387 1005.604248,247.327759 
	C1007.296448,242.495773 1006.010010,236.620636 1006.010010,230.984894 
	C998.804626,230.984894 992.167358,230.885864 985.534058,231.006393 
	C973.357605,231.227661 965.655518,235.902435 966.940247,250.015396 
	C967.438660,255.490646 969.942200,258.733398 976.211548,260.738037 
z"/>
<path fill="#FFFFFF" opacity="1.000000" stroke="none" 
	d="
M1165.983643,276.644867 
	C1164.928223,278.073395 1163.892456,279.841675 1162.816406,279.866577 
	C1153.364624,280.085205 1143.905640,279.993164 1134.011841,279.993164 
	C1134.011841,271.366547 1134.011963,263.087006 1134.011841,254.807480 
	C1134.011597,238.314255 1133.804321,221.817596 1134.076172,205.328857 
	C1134.297485,191.902817 1125.679688,186.022781 1112.580688,188.963760 
	C1107.393311,190.128448 1102.432617,192.620728 1097.618042,195.010834 
	C1094.632324,196.493027 1093.885864,199.455017 1093.911011,202.966949 
	C1094.081787,226.789291 1093.896484,250.614288 1094.094604,274.436188 
	C1094.130737,278.790680 1092.983032,280.313690 1088.506470,280.090179 
	C1081.360596,279.733368 1074.175171,279.785278 1067.023315,280.077026 
	C1063.032227,280.239807 1061.896118,278.936676 1061.917114,274.967346 
	C1062.070435,245.980057 1061.921509,216.991165 1062.074707,188.003876 
	C1062.101074,183.003113 1060.711670,178.875854 1057.659302,175.028900 
	C1056.857300,174.018127 1056.328247,172.008118 1056.805908,170.986115 
	C1057.278076,169.975800 1059.172363,169.108200 1060.459351,169.084625 
	C1069.286011,168.922989 1078.128052,169.260864 1086.942627,168.895203 
	C1091.731323,168.696533 1093.820312,170.096100 1093.019043,174.986725 
	C1092.886353,175.796936 1093.000366,176.647552 1093.000366,177.910431 
	C1097.238525,175.161865 1101.299438,172.667877 1105.214600,169.962982 
	C1117.301147,161.612808 1140.043823,164.304596 1151.175049,172.627747 
	C1161.294312,180.194168 1166.026367,190.193695 1165.999878,202.706436 
	C1165.947998,227.196259 1165.984619,251.686279 1165.983643,276.644867 
z"/>
<path fill="#FFFFFF" opacity="1.000000" stroke="none" 
	d="
M791.000366,243.000000 
	C791.000366,254.166626 790.966492,264.833435 791.024841,275.499756 
	C791.039001,278.078186 790.932068,280.087128 787.443542,280.038422 
	C778.139709,279.908600 768.832886,279.994263 758.999634,279.994263 
	C758.999634,278.138794 758.999634,276.534576 758.999634,274.930328 
	C758.999634,252.597076 759.071777,230.263382 758.927917,207.931046 
	C758.904175,204.247330 758.445435,200.399368 757.289551,196.926163 
	C755.146118,190.485474 746.720642,186.441162 739.178894,188.080200 
	C732.911682,189.442215 726.837769,191.123611 721.590759,195.508545 
	C719.372803,197.362091 718.983948,198.840546 718.984863,201.145325 
	C718.994324,225.645233 718.907959,250.145691 719.072510,274.644501 
	C719.099854,278.708160 718.125916,280.256165 713.786316,280.093140 
	C705.008667,279.763336 696.210022,279.994781 687.015564,279.994781 
	C687.015564,275.994446 687.015564,272.371582 687.015564,268.748749 
	C687.015503,242.082184 686.985901,215.415558 687.043030,188.749115 
	C687.053223,184.026031 686.162354,179.848770 682.866089,176.142273 
	C681.669067,174.796234 681.312805,172.284607 681.482422,170.386093 
	C681.535889,169.787949 684.543213,169.091156 686.209656,169.061508 
	C694.040466,168.922287 701.875122,168.998901 709.708435,168.999710 
	C719.445190,169.000717 717.790771,168.342682 718.053467,177.811203 
	C721.320312,175.507477 724.298462,173.287170 727.394226,171.245285 
	C739.809814,163.056366 753.056091,163.106659 766.461548,167.997467 
	C783.913940,174.364777 790.749573,187.755310 790.969238,205.000778 
	C791.128479,217.498627 791.000366,230.000122 791.000366,243.000000 
z"/>
<path fill="#FFFFFF" opacity="1.000000" stroke="none" 
	d="
M628.000000,232.000000 
	C628.000000,218.173645 628.000000,204.847290 628.000000,191.520935 
	C628.000000,183.126556 628.000000,183.126556 621.515259,171.121704 
	C623.590149,170.380295 625.509766,169.135147 627.455078,169.093765 
	C637.112305,168.888214 646.778503,169.119446 656.436646,168.936264 
	C659.890747,168.870743 661.076355,169.939011 661.065002,173.486191 
	C660.956177,207.468048 660.960144,241.450500 661.060730,275.432404 
	C661.070984,278.878754 660.073059,280.158569 656.514343,280.062256 
	C648.524414,279.846008 640.520874,279.852692 632.530457,280.059937 
	C629.030212,280.150787 627.894897,278.985260 627.933777,275.476746 
	C628.092590,261.152679 628.000000,246.825821 628.000000,232.000000 
z"/>
<path fill="#FEFFFF" opacity="1.000000" stroke="none" 
	d="
M624.946655,126.245422 
	C628.669800,118.594360 634.856384,115.115005 642.687561,115.107651 
	C650.389160,115.100410 656.507690,118.849770 659.826416,125.802910 
	C663.242371,132.959824 662.621033,140.318619 657.641113,146.646988 
	C653.238953,152.241257 646.917297,154.971268 639.964233,153.817093 
	C632.070618,152.506821 625.478149,148.393692 624.162354,139.689468 
	C623.524536,135.470749 624.584961,130.995316 624.946655,126.245422 
z"/>
<path fill="#000000" opacity="1.000000" stroke="none" 
	d="
M201.642303,229.243347 
	C180.046509,217.679871 158.211441,207.043854 141.573349,188.924072 
	C133.660767,180.306824 127.990776,170.442490 126.862892,158.131943 
	C124.927513,137.007889 136.110977,119.427658 153.636353,109.901733 
	C159.205444,106.874657 165.288376,104.770416 171.210358,102.431740 
	C172.593246,101.885612 174.278290,102.104591 175.824310,101.971542 
	C176.014816,102.369164 176.205338,102.766792 176.395844,103.164413 
	C174.727417,104.516884 173.147781,106.000458 171.376053,107.200371 
	C160.600754,114.497948 153.347275,124.350708 152.233917,137.384216 
	C151.570419,145.151474 154.732025,152.538849 159.466125,158.968185 
	C168.766434,171.598801 181.786591,179.618271 194.943253,187.404556 
	C212.906067,198.035248 231.290955,207.988480 248.896851,219.173523 
	C259.973236,226.210327 268.726715,235.729523 271.285095,249.623215 
	C273.158295,259.795776 271.104095,268.833527 265.310303,277.203705 
	C259.686432,285.328461 251.500916,290.279205 243.121658,294.936432 
	C241.709991,295.721069 239.887543,295.766632 236.736832,296.513550 
	C239.388260,291.916809 241.272751,288.642853 243.163757,285.372620 
	C248.819199,275.592346 245.953583,262.939697 238.544739,254.870499 
	C229.426819,244.939896 217.961990,238.624710 206.518219,232.135468 
	C204.985214,231.266159 203.479431,230.348862 201.642303,229.243347 
z"/>
<path fill="#000000" opacity="1.000000" stroke="none" 
	d="
M212.987274,123.451889 
	C210.080002,117.892670 207.173264,112.771454 203.491623,106.284950 
	C208.288315,107.302200 212.187485,108.476768 216.166672,108.901085 
	C224.624451,109.802986 233.132080,110.225845 241.603989,111.010078 
	C251.001877,111.880035 259.623566,114.694817 266.295013,121.821068 
	C267.274139,122.866913 268.461517,124.102692 268.666351,125.391441 
	C268.924561,127.015991 268.704529,129.082672 267.824158,130.362381 
	C267.405212,130.971313 264.913177,130.429459 263.478882,130.006622 
	C260.571533,129.149567 257.812469,127.542610 254.867462,127.124855 
	C251.442307,126.638992 250.362717,128.798599 251.997574,131.927917 
	C254.574905,136.861191 259.819092,137.542038 264.250854,138.791443 
	C269.835938,140.366043 274.874756,142.030228 275.948547,148.418610 
	C277.426849,157.213501 271.619873,163.781342 266.260712,166.244370 
	C261.921387,168.238678 257.538025,165.645508 253.893372,159.542038 
	C251.256805,155.126755 248.320480,150.857742 245.160492,146.801895 
	C243.636215,144.845474 241.747040,143.143555 238.434982,144.760223 
	C235.193848,146.342270 234.417465,148.675400 235.098846,151.533188 
	C235.869461,154.765091 236.676300,158.337723 238.624344,160.873352 
	C244.243820,168.187866 237.287582,176.494705 230.075699,177.125732 
	C218.993210,178.095459 212.827652,169.386032 210.913132,160.833069 
	C208.769257,151.255447 210.828644,141.995132 212.054977,132.630920 
	C212.435349,129.726334 212.680679,126.804054 212.987274,123.451889 
z"/>
<path fill="#000000" opacity="1.000000" stroke="none" 
	d="
M117.967194,251.987198 
	C116.630951,245.977982 115.316933,240.375885 114.002907,234.773788 
	C114.682060,234.285339 115.361221,233.796906 116.040375,233.308456 
	C118.014137,234.745789 120.399414,235.851974 121.877296,237.688370 
	C125.104706,241.698746 127.648399,246.262589 130.908966,250.241806 
	C132.865326,252.629410 135.646835,254.340851 138.598221,256.808228 
	C140.729065,253.408234 142.361267,250.830444 143.966141,248.235733 
	C145.659119,245.498672 147.128754,242.597092 149.054642,240.037216 
	C151.411377,236.904572 154.284576,237.209686 155.334686,240.942963 
	C156.943268,246.661636 158.278000,252.537476 158.898254,258.433990 
	C159.695938,266.017273 161.132217,267.321899 168.379166,264.989349 
	C173.862198,263.224518 179.307526,261.337982 184.819138,259.669128 
	C186.638763,259.118134 188.612961,259.077667 190.804077,258.762390 
	C191.783005,265.791901 187.873444,270.644897 184.813583,275.553375 
	C179.700104,283.756134 180.761368,287.638641 189.890167,290.961884 
	C194.700363,292.712952 199.572495,294.298279 204.347961,296.136932 
	C205.383255,296.535522 206.124191,297.698608 207.000732,298.509552 
	C205.995712,299.353485 205.053177,300.828644 203.975204,300.935303 
	C198.432785,301.483795 192.758911,302.485565 187.310852,301.831207 
	C176.298538,300.508606 165.539078,298.152283 155.317612,293.172089 
	C139.662262,285.544342 128.012192,274.368469 120.866585,258.494232 
	C119.943939,256.444519 118.950211,254.426834 117.967194,251.987198 
z"/>
<path fill="#000000" opacity="1.000000" stroke="none" 
	d="
M1265.984619,194.000000 
	C1265.984619,179.189148 1265.984619,164.878296 1265.984619,150.021027 
	C1283.517334,150.379074 1301.142090,147.830734 1316.685303,158.911087 
	C1326.286987,165.755890 1330.332642,175.562103 1331.867188,186.503967 
	C1332.939331,194.148453 1333.231812,202.005020 1332.880981,209.721786 
	C1332.379883,220.746384 1330.442749,231.384842 1323.223389,240.620819 
	C1317.363159,248.118103 1309.763550,252.443970 1300.929688,253.814651 
	C1289.617798,255.569824 1278.082642,255.887039 1265.984619,256.877838 
	C1265.984619,235.357727 1265.984619,214.928864 1265.984619,194.000000 
z"/>
<path fill="#000000" opacity="1.000000" stroke="none" 
	d="
M975.917603,260.429504 
	C969.942200,258.733398 967.438660,255.490646 966.940247,250.015396 
	C965.655518,235.902435 973.357605,231.227661 985.534058,231.006393 
	C992.167358,230.885864 998.804626,230.984894 1006.010010,230.984894 
	C1006.010010,236.620636 1007.296448,242.495773 1005.604248,247.327759 
	C1004.243774,251.212387 999.656921,254.428131 995.822754,256.878174 
	C989.966125,260.620667 983.214172,261.806061 975.917603,260.429504 
z"/>
</svg>