<svg version="1.1" id="Layer_1" xmlns="http://www.w3.org/2000/svg" xmlns:xlink="http://www.w3.org/1999/xlink" x="0px" y="0px"
	 width="100%" viewBox="0 0 1223 400" enable-background="new 0 0 1223 400" xml:space="preserve">
<path fill="#262626" opacity="1.000000" stroke="none" 
	d="
M867.000000,401.000000 
	C579.500061,401.000000 292.500092,400.991455 5.500187,401.093201 
	C1.751395,401.094543 0.902480,400.250031 0.905732,396.500061 
	C1.018742,266.166870 1.018733,135.833527 0.905801,5.500307 
	C0.902553,1.751315 1.750148,0.906075 5.499795,0.906993 
	C410.166351,1.006072 814.832947,1.006061 1219.499512,0.907119 
	C1223.247437,0.906203 1224.097656,1.748915 1224.094360,5.499636 
	C1223.981201,135.832855 1223.981323,266.166199 1224.094238,396.499390 
	C1224.097534,400.247711 1223.251221,401.098206 1219.500366,401.094543 
	C1102.166992,400.979187 984.833496,401.000000 867.000000,401.000000 
z"/>
<path fill="#262626" opacity="1.000000" stroke="none" 
	d="
M320.444153,234.416351 
	C307.149628,282.906006 263.880768,319.368042 214.252914,324.155212 
	C147.188339,330.624268 88.766319,285.598633 78.235451,219.327011 
	C67.393677,151.098892 117.171806,85.647141 185.841385,77.839211 
	C253.428482,70.154358 313.285309,115.540009 323.727844,182.558823 
	C326.428497,199.891281 325.211212,217.095215 320.444153,234.416351 
z"/>
<path fill="#ffffff" opacity="1.000000" stroke="none" 
	d="
M499.883850,144.141571 
	C500.033905,137.863831 499.127441,132.511642 495.086365,127.848175 
	C492.535553,124.904526 493.812836,122.371368 497.787201,122.296761 
	C507.782928,122.109116 517.785095,122.292740 527.783264,122.187073 
	C531.087524,122.152153 530.516785,124.372421 530.520020,126.276031 
	C530.544861,140.941589 530.514709,155.607269 530.559265,170.272720 
	C530.564575,172.035019 530.099182,173.879196 531.038208,175.650650 
	C532.855225,175.473999 533.923767,174.072540 535.278015,173.223480 
	C550.449280,163.712158 566.377563,162.931274 582.509338,169.967712 
	C595.274414,175.535645 602.014954,185.774750 602.095886,199.838989 
	C602.240784,225.002914 602.086304,250.168594 602.243286,275.332367 
	C602.263733,278.612793 601.122864,279.164368 598.227661,279.094757 
	C590.732544,278.914581 583.222412,278.831940 575.734131,279.121277 
	C572.084106,279.262299 571.372620,277.960785 571.394043,274.595673 
	C571.533936,252.598160 571.469177,230.599350 571.464783,208.600952 
	C571.461426,191.724518 562.305908,184.892899 545.876282,189.499588 
	C545.235474,189.679245 544.592407,189.856018 543.963623,190.072586 
	C531.767334,194.273087 530.533997,195.993698 530.533997,208.784637 
	C530.533997,230.449722 530.378723,252.116806 530.658875,273.778259 
	C530.718323,278.374176 529.324890,279.352814 525.080627,279.130280 
	C518.266541,278.772980 511.403564,278.749023 504.593170,279.140198 
	C500.425232,279.379578 499.798645,277.806000 499.808746,274.111115 
	C499.926666,230.947937 499.884216,187.784286 499.883850,144.141571 
z"/>
<path fill="#ffffff" opacity="1.000000" stroke="none" 
	d="
M918.291504,262.998169 
	C918.195312,268.473694 920.013428,275.152405 917.499817,277.978333 
	C914.606873,281.230835 907.792053,278.913757 902.689941,278.975525 
	C897.898682,279.033539 891.551331,281.053436 888.710693,278.242004 
	C885.634338,275.197235 887.783020,268.801636 887.753052,263.878113 
	C887.641479,245.556717 887.711792,227.234207 887.707642,208.912125 
	C887.703796,191.730545 878.436829,184.814377 861.820251,189.568207 
	C857.620667,190.769653 853.901978,192.948318 850.102844,195.023224 
	C847.393738,196.502808 846.636353,198.463440 846.650452,201.460495 
	C846.763977,225.611801 846.607117,249.764801 846.816589,273.914825 
	C846.852600,278.068054 845.794434,279.335083 841.622498,279.132904 
	C834.476990,278.786682 827.293335,278.821106 820.144165,279.127075 
	C816.488770,279.283539 815.842407,278.000092 815.851196,274.638153 
	C815.963562,231.664825 815.893616,188.691040 815.958679,145.717514 
	C815.968628,139.126511 815.801575,132.824310 810.945374,127.492393 
	C808.577576,124.892639 810.066223,122.431816 813.286316,122.350655 
	C823.606689,122.090523 833.937378,122.239342 844.264038,122.223030 
	C847.661438,122.217659 846.672302,124.796005 846.679382,126.554138 
	C846.739807,141.544693 846.714050,156.535599 846.714111,171.526398 
	C846.714111,172.845947 846.714111,174.165512 846.714111,175.531250 
	C848.869019,175.764526 849.866577,174.183136 851.182068,173.343491 
	C866.118103,163.809509 881.914307,162.970337 897.933411,169.618561 
	C910.942749,175.017700 918.047668,185.228836 918.183411,199.539658 
	C918.382446,220.524475 918.270752,241.512238 918.291504,262.998169 
z"/>
<path fill="#ffffff" opacity="1.000000" stroke="none" 
	d="
M450.524536,277.645203 
	C430.331879,283.275818 410.681763,282.706268 391.230377,276.025665 
	C388.565033,275.110260 385.925964,274.060364 383.391571,272.831696 
	C371.910217,267.265503 371.019318,264.988556 375.493500,253.306213 
	C378.612518,245.162201 378.515930,245.344543 386.304840,249.473526 
	C399.895782,256.678223 414.109680,261.522125 429.832153,259.039429 
	C437.903534,257.764862 444.731873,254.210602 446.665222,245.626663 
	C448.681946,236.672455 447.078369,228.344910 439.241455,222.288208 
	C433.531433,217.875244 426.943146,215.028000 420.484863,211.975021 
	C411.444092,207.701233 402.515198,203.193558 394.683533,196.925171 
	C384.247467,188.572220 376.280304,178.486496 375.058014,164.574097 
	C373.108093,142.380417 384.849457,126.856728 407.603271,122.119629 
	C427.850647,117.904343 447.631378,120.557610 466.959625,127.574806 
	C469.540985,128.511963 470.070984,129.954224 470.015808,132.405167 
	C469.877197,138.565125 469.992554,144.730453 469.956146,150.893326 
	C469.944733,152.825470 470.503906,155.068192 468.145813,156.143921 
	C465.923981,157.157501 464.371887,155.692734 462.805084,154.435959 
	C452.016632,145.782501 439.878082,141.179596 425.880524,141.932053 
	C416.684357,142.426376 410.259155,146.308929 407.970764,153.005692 
	C405.308594,160.796356 407.978058,169.883499 414.633484,175.531158 
	C424.001282,183.480453 435.077698,188.531128 445.927307,193.977341 
	C450.379028,196.211990 454.860229,198.439026 459.092102,201.051651 
	C477.668854,212.520355 482.650879,230.655350 478.513275,249.914459 
	C475.343536,264.668671 464.588593,272.787567 450.524536,277.645203 
z"/>
<path fill="#ffffff" opacity="1.000000" stroke="none" 
	d="
M1037.217163,196.848236 
	C1037.348755,223.595322 1037.425293,249.899353 1037.563232,276.203033 
	C1037.574463,278.351776 1036.828979,279.095917 1034.669434,279.071289 
	C1026.511719,278.978088 1018.350952,278.950012 1010.194275,279.082062 
	C1007.576477,279.124420 1007.153503,277.899628 1007.263000,275.737579 
	C1007.379456,273.437469 1007.289124,271.126862 1007.289124,267.487976 
	C1000.571899,275.084015 993.175964,279.458496 984.362183,281.389313 
	C977.422668,282.909515 970.483582,283.132355 963.570129,281.592041 
	C947.900208,278.100891 938.261292,267.082397 936.612732,251.013535 
	C934.981445,235.113831 942.711731,221.384460 956.999146,214.942413 
	C965.655273,211.039444 974.852051,209.852264 984.242798,209.794067 
	C990.569824,209.754852 996.900574,209.658371 1003.222961,209.832901 
	C1006.093384,209.912140 1007.132385,208.911591 1006.869141,206.100113 
	C1006.683533,204.118744 1006.925659,202.100159 1006.791626,200.110657 
	C1006.284546,192.582245 1002.841248,188.626297 995.492920,186.918991 
	C986.893005,184.920883 978.618164,186.429916 970.530212,189.359070 
	C964.736633,191.457245 959.338196,194.388962 954.035767,197.545715 
	C950.122742,199.875259 948.029114,198.660431 947.900452,194.138458 
	C947.730042,188.148956 947.914673,182.149963 947.798950,176.157913 
	C947.760254,174.156601 948.529663,173.163956 950.367004,172.536667 
	C971.433289,165.344360 992.811829,162.489746 1014.513306,169.100189 
	C1027.783203,173.142273 1035.915405,182.081543 1037.217163,196.848236 
z"/>
<path fill="#ffffff" opacity="1.000000" stroke="none" 
	d="
M759.160767,272.871307 
	C759.160828,250.729294 758.830078,229.063690 759.269775,207.413727 
	C759.596924,191.306366 752.332886,185.578827 734.669983,188.462158 
	C732.889587,188.752808 731.157104,189.483963 729.470398,190.176407 
	C722.009766,193.239182 717.889587,197.545349 718.254578,206.917892 
	C719.129028,229.375778 718.456726,251.891312 718.618591,274.382080 
	C718.644653,278.011780 717.879639,279.331512 713.983521,279.135162 
	C707.003784,278.783447 699.981812,278.793243 693.000549,279.129364 
	C688.976135,279.323151 687.686707,278.389069 687.722168,274.062775 
	C687.945801,246.741074 687.795715,219.416534 687.865356,192.093201 
	C687.881409,185.797897 687.249146,179.918793 682.871826,174.810547 
	C680.330444,171.844696 681.625549,169.291397 685.533691,169.223312 
	C695.193970,169.055038 704.859924,169.235321 714.521667,169.116013 
	C717.088379,169.084320 717.650513,170.252457 717.552490,172.436737 
	C717.463562,174.418854 717.533630,176.408127 717.533630,178.840042 
	C720.505920,177.850403 722.169739,175.750534 724.164490,174.225845 
	C738.906067,162.958176 754.757324,163.065674 770.795593,170.387009 
	C783.084412,175.996780 789.566467,186.473083 789.813599,199.811111 
	C790.282837,225.126816 789.941833,250.456940 790.060486,275.780518 
	C790.073120,278.476959 789.216187,279.143463 786.655090,279.089630 
	C779.327637,278.935608 771.974243,278.702942 764.671448,279.154327 
	C759.890869,279.449829 758.428894,277.734131 759.160767,272.871307 
z"/>
<path fill="#ffffff" opacity="1.000000" stroke="none" 
	d="
M1137.113037,279.029297 
	C1133.149902,278.671417 1134.718018,275.942291 1134.708862,274.364868 
	C1134.589111,253.714310 1134.629272,233.062851 1134.629150,212.411606 
	C1134.629150,210.746185 1134.610229,209.080521 1134.631836,207.415375 
	C1134.823120,192.641632 1129.927734,185.599457 1110.492798,188.317337 
	C1108.550781,188.588898 1106.648193,189.392654 1104.816895,190.162643 
	C1097.462036,193.255234 1093.223022,197.439636 1093.598633,206.838531 
	C1094.496094,229.285858 1093.774536,251.794449 1093.992554,274.275543 
	C1094.032104,278.348969 1092.781860,279.274139 1088.980347,279.119873 
	C1081.830811,278.829681 1074.648315,278.779724 1067.504883,279.137817 
	C1063.575928,279.334808 1062.929932,277.959991 1062.949219,274.383514 
	C1063.097534,246.738281 1062.964844,219.091629 1063.081665,191.446106 
	C1063.107788,185.273865 1062.357910,179.637283 1058.119141,174.693573 
	C1055.622559,171.781799 1056.952759,169.286270 1060.921265,169.219955 
	C1070.578003,169.058517 1080.240234,169.232117 1089.898315,169.116760 
	C1092.432373,169.086517 1093.057495,170.154099 1092.915039,172.405579 
	C1092.783691,174.481293 1092.887085,176.571869 1092.887085,179.405380 
	C1095.777466,177.175262 1097.938110,175.444061 1100.163818,173.801086 
	C1115.428833,162.533585 1131.558472,163.133438 1147.675903,171.227707 
	C1158.414307,176.620728 1164.634888,186.115341 1164.889282,198.094208 
	C1165.440918,224.062943 1165.114624,250.049667 1165.279663,276.028168 
	C1165.298828,279.058350 1163.788452,279.080902 1161.586548,279.062286 
	C1153.593140,278.994659 1145.598877,279.035004 1137.113037,279.029297 
z"/>
<path fill="#ffffff" opacity="1.000000" stroke="none" 
	d="
M629.064819,245.000000 
	C629.064697,226.355270 628.983337,208.209976 629.113403,190.066177 
	C629.152954,184.544220 628.299316,179.493408 624.514526,175.227478 
	C623.519409,174.105942 622.559753,172.819321 623.268494,171.182144 
	C624.054565,169.366623 625.691833,169.147995 627.445679,169.151428 
	C637.100647,169.170364 646.757568,169.265305 656.409546,169.095367 
	C659.364258,169.043335 659.992004,170.123917 659.985779,172.851517 
	C659.908020,207.143204 659.906616,241.435181 659.989258,275.726868 
	C659.995605,278.374664 659.200317,279.137817 656.602661,279.090271 
	C648.614990,278.944000 640.620361,278.921875 632.633972,279.099396 
	C629.792480,279.162628 628.955139,278.308289 629.001709,275.462769 
	C629.165222,265.477509 629.065002,255.487930 629.064819,245.000000 
z"/>
<path fill="#ffffff" opacity="1.000000" stroke="none" 
	d="
M628.599731,121.638336 
	C635.723267,115.296791 645.133057,114.107140 652.349609,118.400497 
	C659.030151,122.374916 662.522705,130.714615 660.650269,138.759369 
	C658.957520,146.032593 654.510681,150.962662 647.131836,152.541183 
	C639.644897,154.142822 632.755737,152.686249 627.824890,146.330933 
	C622.873779,139.949417 622.665894,132.872025 625.888794,125.636703 
	C626.486633,124.294548 627.515686,123.144470 628.599731,121.638336 
z"/>
<path fill="#ffffff" opacity="1.000000" stroke="none" 
	d="
M152.355225,199.660568 
	C145.932770,194.285919 140.222916,188.715820 135.545013,182.163498 
	C120.895027,161.643311 122.836639,136.896500 140.598526,119.009094 
	C149.240555,110.306007 159.608521,104.586311 171.559494,101.752098 
	C173.179016,101.368011 175.006638,100.511818 176.013580,102.444511 
	C177.216614,104.753571 175.142029,105.715027 173.627762,106.615311 
	C168.994720,109.369827 164.993973,112.845955 161.540161,116.951569 
	C150.669983,129.873184 150.105255,145.029877 160.098862,158.650650 
	C167.420425,168.629623 177.133972,175.966263 187.608002,182.217514 
	C206.165985,193.293518 224.941833,204.003983 243.595093,214.921112 
	C251.851303,219.753204 259.287354,225.580231 264.964386,233.408264 
	C276.928680,249.905670 274.996185,270.055084 260.109436,283.927307 
	C254.712387,288.956573 248.634750,292.989258 241.952240,296.113647 
	C240.414780,296.832520 238.743530,297.708160 237.446335,295.993286 
	C236.285782,294.459045 237.589340,293.142334 238.486694,292.005615 
	C251.226196,275.868011 245.735138,261.524750 233.331085,250.240387 
	C228.508270,245.852921 223.112976,242.252274 217.439926,239.063583 
	C203.818069,231.407028 190.172516,223.792450 176.569870,216.101944 
	C168.156540,211.345306 160.150452,205.969849 152.355225,199.660568 
z"/>
<path fill="#ffffff" opacity="1.000000" stroke="none" 
	d="
M264.030487,137.993774 
	C270.295349,139.622864 275.704041,142.012711 276.815155,148.773132 
	C277.952362,155.692154 274.597137,161.037354 269.441101,165.272232 
	C265.281281,168.688889 261.352783,168.451843 257.327606,164.865891 
	C254.016190,161.915848 252.068481,158.043655 250.221741,154.125000 
	C248.788925,151.084641 247.194931,148.167587 244.332138,146.232681 
	C242.277344,144.843872 240.051514,144.336487 237.796417,145.798813 
	C235.540298,147.261841 235.139023,149.407288 235.603928,151.919250 
	C236.223633,155.267593 237.929871,158.098663 239.553528,161.006454 
	C243.251984,167.630127 240.533035,174.592270 233.377090,177.064728 
	C225.690002,179.720703 217.400406,176.288132 213.191910,168.410324 
	C208.128815,158.932785 208.730133,148.833191 210.449478,138.687912 
	C210.948853,135.741257 211.620392,132.824051 212.194748,129.889771 
	C213.658600,122.411186 210.255219,116.677673 205.593933,111.367271 
	C204.506989,110.128975 203.222031,108.708199 204.194824,106.935287 
	C205.093689,105.297150 207.019623,105.650612 208.256592,106.112305 
	C220.370468,110.633705 233.178268,109.523682 245.665436,110.999054 
	C253.043350,111.870758 259.804474,114.694672 265.364258,119.838409 
	C266.567169,120.951324 267.647461,122.293983 268.450134,123.719002 
	C269.579529,125.724075 270.954285,128.008377 268.990662,130.162827 
	C267.082367,132.256592 264.692352,131.289124 262.527130,130.413345 
	C260.682037,129.667053 258.914520,128.729492 257.109314,127.883804 
	C255.344604,127.057091 253.475082,126.498650 252.314316,128.611633 
	C251.271454,130.509995 252.248413,132.161133 253.721420,133.457321 
	C256.563782,135.958466 260.206055,136.724609 264.030487,137.993774 
z"/>
<path fill="#ffffff" opacity="1.000000" stroke="none" 
	d="
M185.205383,276.192169 
	C179.818039,284.322510 179.975037,284.885864 188.381866,289.266541 
	C193.267044,291.812195 198.391464,293.718658 203.683044,295.225067 
	C205.460770,295.731140 207.445541,296.441925 207.362839,298.692474 
	C207.272964,301.138214 205.336121,301.894836 203.177017,302.121918 
	C167.981003,305.823730 124.695534,288.158600 114.579247,242.341995 
	C114.435791,241.692291 114.238564,241.038956 114.212570,240.381531 
	C114.108765,237.755737 113.347641,234.507248 116.390030,233.330582 
	C119.350044,232.185760 120.644928,235.244019 122.056786,237.172562 
	C125.793091,242.276321 129.241455,247.611115 133.746124,252.096191 
	C137.956329,256.288055 139.518112,255.984726 142.054962,250.766388 
	C144.018250,246.727844 145.791443,242.554733 149.033279,239.318680 
	C152.209366,236.148224 154.420639,236.562607 156.058823,240.799225 
	C158.358444,246.746384 158.764633,253.118759 159.793274,259.345276 
	C160.861450,265.811066 162.048294,266.529510 168.454041,264.386963 
	C174.283127,262.437286 180.091187,260.424316 185.930099,258.504852 
	C187.665970,257.934204 189.645798,257.312561 191.135712,258.764801 
	C192.842239,260.428131 191.909119,262.464203 191.271759,264.363647 
	C189.884842,268.496887 187.749268,272.245209 185.205383,276.192169 
z"/>
<path fill="#ffffff" opacity="1.000000" stroke="none" 
	d="
M991.457825,259.712158 
	C988.330078,260.429840 985.591248,261.189392 982.801208,261.531769 
	C974.011963,262.610352 967.858948,258.566589 966.256226,250.840805 
	C964.467224,242.216965 968.735596,234.278381 976.584595,231.649384 
	C982.232117,229.757782 988.085449,230.076813 993.891907,230.191696 
	C998.009827,230.273148 1003.265869,228.412384 1005.941467,230.945374 
	C1008.663208,233.521912 1006.297913,238.858215 1006.896057,242.915482 
	C1007.620972,247.832581 1005.512512,251.114365 1001.727173,253.869217 
	C998.615540,256.133759 995.393555,258.131958 991.457825,259.712158 
z"/>
</svg>