<svg version="1.1" id="Layer_1" xmlns="http://www.w3.org/2000/svg" xmlns:xlink="http://www.w3.org/1999/xlink" x="0px" y="0px"
	 width="100%" viewBox="0 0 1562 400" enable-background="new 0 0 1562 400" xml:space="preserve">
<path fill="#FFFFFF" opacity="1.000000" stroke="none" 
	d="
M1148.000000,401.000000 
	C765.382019,401.000000 383.263977,401.000000 1.072984,401.000000 
	C1.072984,267.732330 1.072984,134.464615 1.072984,1.098447 
	C521.666687,1.098447 1042.333374,1.098447 1562.973389,1.098447 
	C1562.973389,134.402786 1562.973389,267.701385 1562.973389,401.000000 
	C1424.797852,401.000000 1286.648926,401.000000 1148.000000,401.000000 
M237.441681,320.002563 
	C244.207565,317.347931 251.305664,315.314880 257.671875,311.912415 
	C271.991608,304.259186 285.057129,294.964081 295.535156,282.145233 
	C305.734283,269.667633 313.953918,256.267517 319.056152,240.962891 
	C323.937866,226.319702 326.255280,211.347137 324.977875,195.917267 
	C324.356506,188.411804 324.310089,180.735321 322.603882,173.464691 
	C315.658264,143.867661 300.322479,119.572807 275.776276,101.208588 
	C248.853516,81.066330 218.499603,73.576218 185.503845,77.200500 
	C168.171356,79.104317 151.764755,84.813034 136.689667,94.006752 
	C117.094925,105.956833 101.756996,121.874634 90.997498,142.135223 
	C80.322731,162.236252 75.867760,183.585922 76.819817,206.432312 
	C77.574333,224.538605 81.673523,241.530930 89.951317,257.465088 
	C97.449348,271.898224 106.936325,284.823120 119.672821,295.345001 
	C130.686722,304.443817 142.530563,311.831329 155.814972,317.053375 
	C172.900604,323.769714 190.650223,326.313934 208.815872,324.844391 
	C218.150009,324.089264 227.353302,321.716858 237.441681,320.002563 
M1259.500000,126.000000 
	C1250.339966,126.000015 1241.178711,125.924469 1232.020996,126.070267 
	C1230.388184,126.096252 1227.667725,126.710960 1227.392212,127.633781 
	C1226.929688,129.183334 1227.564575,131.515488 1228.553467,132.959824 
	C1231.817749,137.727707 1233.115112,142.755692 1233.091431,148.587585 
	C1232.920532,190.556458 1233.000000,232.526321 1233.000000,274.495880 
	C1233.000000,276.255310 1233.000000,278.014740 1233.000000,279.003632 
	C1254.208130,279.003632 1274.766113,279.012787 1295.323975,279.000732 
	C1311.430908,278.991272 1326.061768,274.244934 1339.164062,264.951752 
	C1352.884277,255.220200 1360.293579,241.351654 1363.934326,225.359726 
	C1366.922485,212.234238 1366.939453,198.881821 1364.947144,185.607880 
	C1362.832275,171.518784 1357.419189,158.715759 1347.634155,148.239594 
	C1333.055542,132.631256 1313.985840,127.211998 1293.470459,126.104958 
	C1282.510254,125.513542 1271.492065,126.000008 1259.500000,126.000000 
M840.415283,122.000000 
	C831.918396,122.000000 823.419067,121.891319 814.926270,122.078773 
	C812.882874,122.123878 810.861084,123.151047 807.486511,124.106926 
	C817.354126,133.269775 814.929871,144.047638 814.956726,154.230743 
	C815.062317,194.216522 815.000000,234.202759 815.000000,274.188812 
	C815.000000,275.977814 815.000000,277.766846 815.000000,279.755890 
	C825.822510,279.755890 836.215637,279.755890 847.000000,279.755890 
	C847.000000,277.890076 847.000000,276.263092 847.000000,274.636108 
	C847.000000,252.477173 847.000000,230.318237 847.000000,208.159302 
	C847.000000,196.679932 847.828857,195.425781 858.410339,191.263062 
	C860.354309,190.498306 862.326294,189.598083 864.363098,189.310318 
	C875.307617,187.763947 887.322388,189.699570 887.081055,206.472275 
	C886.755005,229.126358 887.000000,251.788651 887.000000,274.447418 
	C887.000000,276.212036 887.000000,277.976654 887.000000,279.664490 
	C898.009888,279.664490 908.404785,279.664490 918.999634,279.664490 
	C918.999634,252.187683 919.280579,225.041611 918.862793,197.906281 
	C918.693481,186.909088 913.364380,177.772491 903.851440,172.091415 
	C890.426025,164.073761 876.009888,162.369141 861.149658,167.992828 
	C856.536499,169.738647 852.130310,172.031525 846.919250,174.396149 
	C846.919250,156.588654 846.919250,139.396210 846.919250,122.000000 
	C844.687866,122.000000 843.038513,122.000000 840.415283,122.000000 
M531.000000,231.500000 
	C531.000000,223.667740 531.000000,215.835464 531.000000,208.003204 
	C531.000000,196.848938 532.469910,194.762970 543.021973,191.039642 
	C544.687622,190.451920 546.351379,189.740402 548.076843,189.459824 
	C559.741699,187.562866 571.341431,190.474548 571.092896,206.148270 
	C570.730957,228.973022 571.000000,251.807800 571.000000,274.638306 
	C571.000000,276.384766 571.000000,278.131226 571.000000,279.770782 
	C582.026978,279.770782 592.304810,279.770782 602.507568,279.770782 
	C602.713379,279.257416 602.932190,278.966095 602.932556,278.674500 
	C602.965454,252.011856 603.265869,225.344879 602.860535,198.688629 
	C602.696045,187.869156 597.806091,178.185028 588.640259,172.530853 
	C573.809204,163.381851 557.707214,162.104767 541.422791,169.261414 
	C538.087036,170.727386 534.940918,172.624985 530.856812,174.770432 
	C530.856812,156.553543 530.856812,139.348129 530.856812,122.000252 
	C519.289124,122.000252 508.298462,121.950546 497.309692,122.071716 
	C496.118744,122.084862 494.268280,122.819366 493.919220,123.695534 
	C493.457397,124.854668 493.677856,126.903625 494.469147,127.839737 
	C498.445221,132.543594 499.111664,137.886505 499.089050,143.837158 
	C498.923798,187.331146 499.000000,230.826035 499.000000,274.320648 
	C499.000000,276.097717 499.000000,277.874817 499.000000,279.706329 
	C509.920868,279.706329 520.316284,279.706329 531.000000,279.706329 
	C531.000000,263.776306 531.000000,248.138153 531.000000,231.500000 
M1472.015259,272.498383 
	C1477.794922,268.923370 1481.532837,263.704681 1483.990112,257.492188 
	C1487.528564,248.546448 1487.840820,239.294785 1485.902832,230.023102 
	C1483.606689,219.037552 1478.020386,209.897003 1468.250000,204.138031 
	C1458.475098,198.376434 1448.065918,193.691055 1438.293701,187.925476 
	C1431.468262,183.898529 1424.598145,179.524750 1418.918579,174.083893 
	C1411.603638,167.076355 1411.507568,151.638702 1423.549194,146.692673 
	C1432.672974,142.945114 1441.558838,143.690857 1450.092407,146.840546 
	C1457.120972,149.434753 1463.392944,154.041367 1470.107300,157.551346 
	C1471.697632,158.382690 1473.954102,159.066055 1475.452881,158.537552 
	C1476.401001,158.203186 1476.891602,155.507721 1476.933228,153.854782 
	C1477.096436,147.362930 1476.876831,140.861160 1477.054688,134.370071 
	C1477.137085,131.360001 1476.550659,129.579422 1473.165161,128.900101 
	C1464.293823,127.120148 1455.567993,124.520615 1446.648682,123.095879 
	C1432.259277,120.797386 1417.962036,120.917305 1404.197266,126.915359 
	C1383.543579,135.915207 1378.793945,150.898651 1381.369629,169.229218 
	C1383.367310,183.446487 1391.978271,194.451935 1404.146484,201.879364 
	C1414.485474,208.190247 1425.550659,213.304672 1436.234985,219.059082 
	C1442.309692,222.330902 1449.177246,225.594818 1451.495605,232.303024 
	C1456.778198,247.588394 1451.319092,259.813080 1432.495117,260.977814 
	C1419.261108,261.796631 1406.968994,258.419342 1395.435791,252.065552 
	C1391.992554,250.168549 1388.619629,248.143814 1384.829346,245.955231 
	C1384.070190,248.453400 1383.574829,250.475998 1382.836914,252.405838 
	C1382.028442,254.520035 1380.974976,256.539459 1380.064819,258.616241 
	C1377.224854,265.095703 1378.714355,269.366302 1385.159058,273.015839 
	C1397.880371,280.219604 1411.688354,283.564667 1426.185059,283.917450 
	C1432.593872,284.073395 1439.088379,283.786621 1445.429810,282.891571 
	C1454.779785,281.571808 1463.797729,278.928925 1472.015259,272.498383 
M390.731354,128.041641 
	C386.621460,132.393387 381.342743,136.120071 378.619141,141.213165 
	C370.200226,156.956421 373.784912,176.562653 385.940826,189.530197 
	C394.263672,198.408768 404.261871,204.650833 414.994690,210.046738 
	C423.247650,214.195862 431.718842,218.123749 439.336639,223.269653 
	C448.928955,229.749329 451.288239,249.414627 437.130493,256.021698 
	C427.825867,260.363922 418.398071,259.547760 408.854462,257.412903 
	C397.871735,254.956116 387.739746,250.527283 378.640167,243.720947 
	C376.399506,249.219223 374.096924,254.222733 372.334717,259.409790 
	C371.055084,263.176422 372.268555,266.568573 375.653656,268.937347 
	C388.183655,277.705414 402.601624,280.919800 417.407288,281.784149 
	C426.178955,282.296204 435.174255,281.273315 443.894745,279.863251 
	C459.480774,277.343079 476.749146,266.950134 479.471100,247.955917 
	C481.143829,236.283600 480.584900,224.719650 473.838562,214.359314 
	C467.723267,204.968079 458.444031,199.504288 448.877014,194.375198 
	C438.615601,188.873856 428.127533,183.710785 418.297882,177.512756 
	C408.723328,171.475555 405.286316,161.523499 408.467072,153.054581 
	C411.149292,145.912933 423.236633,140.372604 432.072021,142.027237 
	C443.706390,144.206070 454.733551,147.581360 463.657349,155.962418 
	C464.628784,156.874756 466.846985,157.147461 468.186310,156.736740 
	C469.069366,156.465927 469.898132,154.447464 469.920929,153.196396 
	C470.072296,144.893707 469.999359,136.586945 469.999359,128.303177 
	C467.902710,127.452400 466.118713,126.649956 464.281891,125.995659 
	C450.526184,121.095650 436.304230,119.697807 421.777435,119.930359 
	C410.941498,120.103828 400.854034,122.540192 390.731354,128.041641 
M943.954285,223.569122 
	C943.333557,224.517731 942.728149,225.476791 942.089783,226.413376 
	C934.004822,238.274643 932.851746,256.848663 944.131897,271.587555 
	C950.348877,279.710846 970.101379,285.349243 982.167603,282.508118 
	C991.537659,280.301819 1000.005920,276.854919 1007.034607,268.260223 
	C1007.034607,272.910431 1007.034607,276.288757 1007.034607,279.714508 
	C1017.572021,279.714508 1027.633423,279.714508 1037.996094,279.714508 
	C1037.996094,251.638626 1038.348999,223.839935 1037.779907,196.060120 
	C1037.610352,187.791504 1033.959229,180.419632 1026.726440,174.782318 
	C1017.373169,167.492264 1006.585632,165.984680 995.587158,165.148376 
	C989.226440,164.664688 982.668335,165.129944 976.349365,166.123779 
	C966.490540,167.674347 956.759338,170.036743 947.001160,172.049561 
	C947.001160,180.379562 946.903259,187.367798 947.037659,194.351547 
	C947.118591,198.556015 950.524048,200.251022 954.244873,198.241653 
	C958.818665,195.771683 963.414246,193.337189 968.060303,191.006851 
	C976.418762,186.814438 985.426880,186.404495 994.471069,187.096024 
	C1000.149353,187.530182 1005.111084,191.900787 1005.840454,197.048767 
	C1006.385254,200.893707 1005.947876,204.877838 1005.947876,208.491760 
	C995.086365,209.014587 984.841675,209.341248 974.622925,210.043777 
	C963.100647,210.835938 952.693848,214.494232 943.954285,223.569122 
M788.254333,279.988190 
	C788.836243,278.377441 789.918518,276.768738 789.925171,275.155640 
	C790.031250,249.341888 790.010681,223.527588 789.974304,197.713455 
	C789.972046,196.097824 789.762695,194.442902 789.376282,192.873566 
	C785.848083,178.547256 776.620667,170.158936 762.409546,166.737274 
	C749.311462,163.583603 736.915344,163.845154 725.730957,172.608932 
	C723.531433,174.332397 720.831848,175.417496 717.868164,177.073380 
	C717.868164,174.022644 717.868164,171.731613 717.868164,169.000000 
	C707.355896,169.000000 697.067627,168.935226 686.781616,169.060165 
	C684.945740,169.082458 683.119446,169.890762 681.288696,170.336136 
	C681.893250,172.418854 681.968872,174.916946 683.211182,176.498795 
	C685.889587,179.909164 687.084839,183.430374 687.065613,187.790024 
	C686.938660,216.601410 687.000000,245.413635 687.000000,274.225586 
	C687.000000,276.010834 687.000000,277.796112 687.000000,279.748047 
	C697.844604,279.748047 708.234924,279.748047 719.000000,279.748047 
	C719.000000,277.713928 719.000000,275.915070 719.000000,274.116211 
	C719.000000,249.967468 718.993408,225.818741 719.016235,201.670013 
	C719.017639,200.215134 718.735352,198.395615 719.462341,197.364151 
	C724.723206,189.900360 741.919495,186.112106 750.850830,189.896896 
	C757.936523,192.899506 758.818237,199.132446 758.890625,205.276016 
	C759.163391,228.422302 759.000000,251.573715 759.000000,274.723206 
	C759.000000,276.341980 759.000000,277.960754 759.000000,279.998688 
	C768.728821,279.998688 778.011169,279.998688 788.254333,279.988190 
M1109.783081,189.002563 
	C1120.252808,186.326935 1132.154541,188.992462 1133.685547,200.243301 
	C1133.907837,201.877945 1133.985840,203.543701 1133.987183,205.195206 
	C1134.005981,228.345200 1134.000000,251.495193 1134.000000,274.645203 
	C1134.000000,276.390198 1134.000000,278.135162 1134.000000,279.775970 
	C1145.025146,279.775970 1155.298584,279.775970 1165.497070,279.775970 
	C1165.706177,279.269623 1165.930298,278.979828 1165.930664,278.689758 
	C1165.964600,252.376114 1166.304443,226.056534 1165.824463,199.751938 
	C1165.656128,190.533051 1162.154175,181.999741 1154.976318,175.423447 
	C1147.804321,168.852478 1139.045898,166.141800 1129.754150,165.081451 
	C1119.919922,163.959167 1110.563721,165.934784 1102.174927,171.417023 
	C1099.171997,173.379486 1096.407837,175.707291 1092.817627,178.407700 
	C1092.817627,174.618027 1092.817627,172.005600 1092.817627,169.002838 
	C1081.434937,169.002838 1070.312012,168.930771 1059.190918,169.052689 
	C1056.353760,169.083786 1054.879272,172.177628 1056.855347,174.188416 
	C1062.578491,180.012344 1062.985718,187.258789 1062.991577,194.678116 
	C1063.012939,221.325592 1063.000000,247.973083 1063.000000,274.620575 
	C1063.000000,276.367950 1063.000000,278.115326 1063.000000,279.784424 
	C1073.674438,279.784424 1083.614624,279.784424 1094.000000,279.784424 
	C1094.000000,277.957092 1094.000000,276.337921 1094.000000,274.718719 
	C1094.000000,252.234894 1094.406250,229.739716 1093.777588,207.273483 
	C1093.560303,199.508270 1096.106079,194.823959 1102.755737,191.775513 
	C1104.806519,190.835373 1106.882202,189.949219 1109.783081,189.002563 
M629.000000,209.500031 
	C629.000000,232.899902 629.000000,256.299774 629.000000,279.695282 
	C639.630493,279.695282 649.682983,279.695282 659.720764,279.695282 
	C659.720764,242.699951 659.720764,206.010025 659.720764,169.000122 
	C648.823853,169.000122 638.202942,168.942200 627.584229,169.067032 
	C626.112610,169.084320 623.736633,169.667648 623.398987,170.585068 
	C622.886414,171.977722 623.536499,173.992981 624.152344,175.563553 
	C625.255249,178.376083 627.563965,180.970657 627.838867,183.804764 
	C628.633667,191.996964 628.667419,200.263016 629.000000,209.500031 
M661.000061,137.210175 
	C660.717834,133.637695 661.152893,129.817001 660.018738,126.539345 
	C656.640991,116.778397 644.927307,112.804863 634.799744,116.727562 
	C627.359436,119.609390 622.129700,127.950874 623.026245,135.321075 
	C624.339722,146.117889 630.849182,152.216888 639.203735,153.182663 
	C651.247375,154.574890 660.073364,148.342575 661.000061,137.210175 
z"/>
<path fill="#0046FF" opacity="1.000000" stroke="none" 
	d="
M237.028702,320.038940 
	C227.353302,321.716858 218.150009,324.089264 208.815872,324.844391 
	C190.650223,326.313934 172.900604,323.769714 155.814972,317.053375 
	C142.530563,311.831329 130.686722,304.443817 119.672821,295.345001 
	C106.936325,284.823120 97.449348,271.898224 89.951317,257.465088 
	C81.673523,241.530930 77.574333,224.538605 76.819817,206.432312 
	C75.867760,183.585922 80.322731,162.236252 90.997498,142.135223 
	C101.756996,121.874634 117.094925,105.956833 136.689667,94.006752 
	C151.764755,84.813034 168.171356,79.104317 185.503845,77.200500 
	C218.499603,73.576218 248.853516,81.066330 275.776276,101.208588 
	C300.322479,119.572807 315.658264,143.867661 322.603882,173.464691 
	C324.310089,180.735321 324.356506,188.411804 324.977875,195.917267 
	C326.255280,211.347137 323.937866,226.319702 319.056152,240.962891 
	C313.953918,256.267517 305.734283,269.667633 295.535156,282.145233 
	C285.057129,294.964081 271.991608,304.259186 257.671875,311.912415 
	C251.305664,315.314880 244.207565,317.347931 237.028702,320.038940 
M224.012405,242.497543 
	C227.688248,245.181900 231.867599,247.392944 234.931686,250.652390 
	C240.723938,256.813904 245.944473,263.288147 246.163025,272.705841 
	C246.355164,280.985901 242.441528,287.288635 237.475922,295.020905 
	C241.815765,293.771210 245.413315,293.641235 247.794876,291.873260 
	C254.012421,287.257629 260.556702,282.629578 265.403107,276.720734 
	C273.619629,266.703003 272.756989,254.499695 269.286652,243.024399 
	C266.054413,232.336594 257.912964,224.736542 248.593216,219.040344 
	C230.889038,208.219559 212.787125,198.051987 194.961975,187.425934 
	C182.051590,179.729675 169.498505,171.690094 159.897003,159.587021 
	C149.416901,146.376480 150.946960,125.558044 162.565979,114.964973 
	C166.845596,111.063240 171.316696,107.371529 175.700455,103.584023 
	C171.490234,103.149406 167.452194,103.214722 163.988647,104.658333 
	C152.695938,109.365143 142.359955,115.675407 135.422211,126.145920 
	C127.492073,138.114120 123.419624,150.985214 128.003159,165.376572 
	C134.449341,185.616241 149.533691,198.490952 166.666458,209.062881 
	C185.285339,220.551834 204.513916,231.052719 224.012405,242.497543 
M226.710480,177.000000 
	C227.876755,176.999863 229.043625,177.023804 230.209229,176.995605 
	C236.802094,176.836166 244.622070,168.912628 238.696976,161.042603 
	C236.992889,158.779144 235.933868,155.882370 235.139877,153.115051 
	C233.863602,148.666794 236.580963,143.652008 240.150574,144.250259 
	C242.921951,144.714752 245.981918,146.633835 247.802460,148.828217 
	C250.343140,151.890549 251.708618,155.898148 253.833435,159.343048 
	C256.264191,163.283951 258.949493,167.355545 264.373230,166.926422 
	C270.289215,166.458344 277.332092,155.766220 276.413727,149.773773 
	C275.144196,141.489960 268.621552,140.035278 262.280609,137.935425 
	C259.131744,136.892639 255.955627,135.486191 253.326294,133.526962 
	C252.180206,132.672943 252.376862,130.016953 251.963715,128.179321 
	C253.734726,127.826447 255.641510,126.888229 257.244385,127.260078 
	C259.555145,127.796165 261.577789,129.471024 263.856201,130.290634 
	C265.100403,130.738205 267.079803,130.978790 267.887726,130.305222 
	C268.761383,129.576889 269.107483,127.587608 268.860504,126.307106 
	C268.571075,124.806625 267.613678,123.281563 266.565887,122.105957 
	C260.250549,115.020309 251.805435,111.401222 242.788208,111.250328 
	C230.877899,111.051048 219.283188,110.053902 207.899261,106.529854 
	C206.737396,106.170189 205.247894,106.868874 203.214767,107.184395 
	C205.268021,109.896095 206.558350,111.774269 208.024063,113.503807 
	C212.701309,119.022995 214.020508,125.242577 212.374100,132.251862 
	C209.847260,143.009476 208.143417,153.892136 212.099258,164.613693 
	C214.428406,170.926407 218.356689,176.104538 226.710480,177.000000 
M188.064743,269.582886 
	C189.380203,266.438110 190.695648,263.293365 192.332123,259.381165 
	C189.257431,259.381165 187.091507,258.933136 185.203583,259.467407 
	C180.092270,260.913910 175.097610,262.773438 170.059250,264.476715 
	C158.838760,268.269928 160.535141,265.400726 158.983032,257.147003 
	C157.996414,251.900467 157.141174,246.600922 155.682785,241.480148 
	C154.474716,237.238342 152.375168,236.805023 149.527664,240.116653 
	C147.114609,242.922989 145.037567,246.110168 143.301010,249.387985 
	C139.133423,257.254425 137.396973,257.570099 131.457123,250.948395 
	C130.916473,250.345657 130.477188,249.651047 130.000183,248.992355 
	C126.951187,244.782181 124.014763,240.482849 120.786400,236.415176 
	C119.889549,235.285110 118.129913,234.839798 116.766106,234.080338 
	C116.177467,235.471710 115.019699,236.902222 115.112137,238.246780 
	C115.344063,241.619949 115.752190,245.078491 116.774933,248.284164 
	C123.947815,270.766846 138.709747,286.567078 160.329575,295.575500 
	C173.612701,301.110199 187.771378,302.966644 202.164658,301.854706 
	C203.843552,301.725006 205.376801,299.710205 206.977554,298.569336 
	C205.607315,297.696106 204.316986,296.647552 202.852844,295.980286 
	C196.846893,293.243195 190.614639,290.948090 184.803284,287.855804 
	C180.121887,285.364838 179.985870,283.056671 182.856430,278.639282 
	C184.624603,275.918335 186.256165,273.108612 188.064743,269.582886 
z"/>
<path fill="#0046FF" opacity="1.000000" stroke="none" 
	d="
M1260.000000,126.000000 
	C1271.492065,126.000008 1282.510254,125.513542 1293.470459,126.104958 
	C1313.985840,127.211998 1333.055542,132.631256 1347.634155,148.239594 
	C1357.419189,158.715759 1362.832275,171.518784 1364.947144,185.607880 
	C1366.939453,198.881821 1366.922485,212.234238 1363.934326,225.359726 
	C1360.293579,241.351654 1352.884277,255.220200 1339.164062,264.951752 
	C1326.061768,274.244934 1311.430908,278.991272 1295.323975,279.000732 
	C1274.766113,279.012787 1254.208130,279.003632 1233.000000,279.003632 
	C1233.000000,278.014740 1233.000000,276.255310 1233.000000,274.495880 
	C1233.000000,232.526321 1232.920532,190.556458 1233.091431,148.587585 
	C1233.115112,142.755692 1231.817749,137.727707 1228.553467,132.959824 
	C1227.564575,131.515488 1226.929688,129.183334 1227.392212,127.633781 
	C1227.667725,126.710960 1230.388184,126.096252 1232.020996,126.070267 
	C1241.178711,125.924469 1250.339966,126.000015 1260.000000,126.000000 
M1266.000000,247.454590 
	C1266.000000,250.222412 1266.000000,252.990234 1266.000000,256.913727 
	C1278.147949,255.903824 1289.735352,255.752609 1301.010620,253.799271 
	C1315.363770,251.312698 1325.305298,242.553497 1329.780151,228.436768 
	C1334.349609,214.022415 1334.147461,199.199265 1331.630005,184.546356 
	C1329.875122,174.331299 1325.587036,165.209869 1316.515015,158.769989 
	C1300.992065,147.750748 1283.499878,150.345444 1266.000000,150.056290 
	C1266.000000,182.554489 1266.000000,214.509171 1266.000000,247.454590 
z"/>
<path fill="#0046FF" opacity="1.000000" stroke="none" 
	d="
M840.902222,122.000000 
	C843.038513,122.000000 844.687866,122.000000 846.919250,122.000000 
	C846.919250,139.396210 846.919250,156.588654 846.919250,174.396149 
	C852.130310,172.031525 856.536499,169.738647 861.149658,167.992828 
	C876.009888,162.369141 890.426025,164.073761 903.851440,172.091415 
	C913.364380,177.772491 918.693481,186.909088 918.862793,197.906281 
	C919.280579,225.041611 918.999634,252.187683 918.999634,279.664490 
	C908.404785,279.664490 898.009888,279.664490 887.000000,279.664490 
	C887.000000,277.976654 887.000000,276.212036 887.000000,274.447418 
	C887.000000,251.788651 886.755005,229.126358 887.081055,206.472275 
	C887.322388,189.699570 875.307617,187.763947 864.363098,189.310318 
	C862.326294,189.598083 860.354309,190.498306 858.410339,191.263062 
	C847.828857,195.425781 847.000000,196.679932 847.000000,208.159302 
	C847.000000,230.318237 847.000000,252.477173 847.000000,274.636108 
	C847.000000,276.263092 847.000000,277.890076 847.000000,279.755890 
	C836.215637,279.755890 825.822510,279.755890 815.000000,279.755890 
	C815.000000,277.766846 815.000000,275.977814 815.000000,274.188812 
	C815.000000,234.202759 815.062317,194.216522 814.956726,154.230743 
	C814.929871,144.047638 817.354126,133.269775 807.486511,124.106926 
	C810.861084,123.151047 812.882874,122.123878 814.926270,122.078773 
	C823.419067,121.891319 831.918396,122.000000 840.902222,122.000000 
z"/>
<path fill="#0046FF" opacity="1.000000" stroke="none" 
	d="
M531.000000,232.000000 
	C531.000000,248.138153 531.000000,263.776306 531.000000,279.706329 
	C520.316284,279.706329 509.920868,279.706329 499.000000,279.706329 
	C499.000000,277.874817 499.000000,276.097717 499.000000,274.320648 
	C499.000000,230.826035 498.923798,187.331146 499.089050,143.837158 
	C499.111664,137.886505 498.445221,132.543594 494.469147,127.839737 
	C493.677856,126.903625 493.457397,124.854668 493.919220,123.695534 
	C494.268280,122.819366 496.118744,122.084862 497.309692,122.071716 
	C508.298462,121.950546 519.289124,122.000252 530.856812,122.000252 
	C530.856812,139.348129 530.856812,156.553543 530.856812,174.770432 
	C534.940918,172.624985 538.087036,170.727386 541.422791,169.261414 
	C557.707214,162.104767 573.809204,163.381851 588.640259,172.530853 
	C597.806091,178.185028 602.696045,187.869156 602.860535,198.688629 
	C603.265869,225.344879 602.965454,252.011856 602.932556,278.674500 
	C602.932190,278.966095 602.713379,279.257416 602.507568,279.770782 
	C592.304810,279.770782 582.026978,279.770782 571.000000,279.770782 
	C571.000000,278.131226 571.000000,276.384766 571.000000,274.638306 
	C571.000000,251.807800 570.730957,228.973022 571.092896,206.148270 
	C571.341431,190.474548 559.741699,187.562866 548.076843,189.459824 
	C546.351379,189.740402 544.687622,190.451920 543.021973,191.039642 
	C532.469910,194.762970 531.000000,196.848938 531.000000,208.003204 
	C531.000000,215.835464 531.000000,223.667740 531.000000,232.000000 
z"/>
<path fill="#0046FF" opacity="1.000000" stroke="none" 
	d="
M1471.750488,272.755554 
	C1463.797729,278.928925 1454.779785,281.571808 1445.429810,282.891571 
	C1439.088379,283.786621 1432.593872,284.073395 1426.185059,283.917450 
	C1411.688354,283.564667 1397.880371,280.219604 1385.159058,273.015839 
	C1378.714355,269.366302 1377.224854,265.095703 1380.064819,258.616241 
	C1380.974976,256.539459 1382.028442,254.520035 1382.836914,252.405838 
	C1383.574829,250.475998 1384.070190,248.453400 1384.829346,245.955231 
	C1388.619629,248.143814 1391.992554,250.168549 1395.435791,252.065552 
	C1406.968994,258.419342 1419.261108,261.796631 1432.495117,260.977814 
	C1451.319092,259.813080 1456.778198,247.588394 1451.495605,232.303024 
	C1449.177246,225.594818 1442.309692,222.330902 1436.234985,219.059082 
	C1425.550659,213.304672 1414.485474,208.190247 1404.146484,201.879364 
	C1391.978271,194.451935 1383.367310,183.446487 1381.369629,169.229218 
	C1378.793945,150.898651 1383.543579,135.915207 1404.197266,126.915359 
	C1417.962036,120.917305 1432.259277,120.797386 1446.648682,123.095879 
	C1455.567993,124.520615 1464.293823,127.120148 1473.165161,128.900101 
	C1476.550659,129.579422 1477.137085,131.360001 1477.054688,134.370071 
	C1476.876831,140.861160 1477.096436,147.362930 1476.933228,153.854782 
	C1476.891602,155.507721 1476.401001,158.203186 1475.452881,158.537552 
	C1473.954102,159.066055 1471.697632,158.382690 1470.107300,157.551346 
	C1463.392944,154.041367 1457.120972,149.434753 1450.092407,146.840546 
	C1441.558838,143.690857 1432.672974,142.945114 1423.549194,146.692673 
	C1411.507568,151.638702 1411.603638,167.076355 1418.918579,174.083893 
	C1424.598145,179.524750 1431.468262,183.898529 1438.293701,187.925476 
	C1448.065918,193.691055 1458.475098,198.376434 1468.250000,204.138031 
	C1478.020386,209.897003 1483.606689,219.037552 1485.902832,230.023102 
	C1487.840820,239.294785 1487.528564,248.546448 1483.990112,257.492188 
	C1481.532837,263.704681 1477.794922,268.923370 1471.750488,272.755554 
z"/>
<path fill="#0046FF" opacity="1.000000" stroke="none" 
	d="
M391.100464,127.985748 
	C400.854034,122.540192 410.941498,120.103828 421.777435,119.930359 
	C436.304230,119.697807 450.526184,121.095650 464.281891,125.995659 
	C466.118713,126.649956 467.902710,127.452400 469.999359,128.303177 
	C469.999359,136.586945 470.072296,144.893707 469.920929,153.196396 
	C469.898132,154.447464 469.069366,156.465927 468.186310,156.736740 
	C466.846985,157.147461 464.628784,156.874756 463.657349,155.962418 
	C454.733551,147.581360 443.706390,144.206070 432.072021,142.027237 
	C423.236633,140.372604 411.149292,145.912933 408.467072,153.054581 
	C405.286316,161.523499 408.723328,171.475555 418.297882,177.512756 
	C428.127533,183.710785 438.615601,188.873856 448.877014,194.375198 
	C458.444031,199.504288 467.723267,204.968079 473.838562,214.359314 
	C480.584900,224.719650 481.143829,236.283600 479.471100,247.955917 
	C476.749146,266.950134 459.480774,277.343079 443.894745,279.863251 
	C435.174255,281.273315 426.178955,282.296204 417.407288,281.784149 
	C402.601624,280.919800 388.183655,277.705414 375.653656,268.937347 
	C372.268555,266.568573 371.055084,263.176422 372.334717,259.409790 
	C374.096924,254.222733 376.399506,249.219223 378.640167,243.720947 
	C387.739746,250.527283 397.871735,254.956116 408.854462,257.412903 
	C418.398071,259.547760 427.825867,260.363922 437.130493,256.021698 
	C451.288239,249.414627 448.928955,229.749329 439.336639,223.269653 
	C431.718842,218.123749 423.247650,214.195862 414.994690,210.046738 
	C404.261871,204.650833 394.263672,198.408768 385.940826,189.530197 
	C373.784912,176.562653 370.200226,156.956421 378.619141,141.213165 
	C381.342743,136.120071 386.621460,132.393387 391.100464,127.985748 
z"/>
<path fill="#0046FF" opacity="1.000000" stroke="none" 
	d="
M944.202271,223.302155 
	C952.693848,214.494232 963.100647,210.835938 974.622925,210.043777 
	C984.841675,209.341248 995.086365,209.014587 1005.947876,208.491760 
	C1005.947876,204.877838 1006.385254,200.893707 1005.840454,197.048767 
	C1005.111084,191.900787 1000.149353,187.530182 994.471069,187.096024 
	C985.426880,186.404495 976.418762,186.814438 968.060303,191.006851 
	C963.414246,193.337189 958.818665,195.771683 954.244873,198.241653 
	C950.524048,200.251022 947.118591,198.556015 947.037659,194.351547 
	C946.903259,187.367798 947.001160,180.379562 947.001160,172.049561 
	C956.759338,170.036743 966.490540,167.674347 976.349365,166.123779 
	C982.668335,165.129944 989.226440,164.664688 995.587158,165.148376 
	C1006.585632,165.984680 1017.373169,167.492264 1026.726440,174.782318 
	C1033.959229,180.419632 1037.610352,187.791504 1037.779907,196.060120 
	C1038.348999,223.839935 1037.996094,251.638626 1037.996094,279.714508 
	C1027.633423,279.714508 1017.572021,279.714508 1007.034607,279.714508 
	C1007.034607,276.288757 1007.034607,272.910431 1007.034607,268.260223 
	C1000.005920,276.854919 991.537659,280.301819 982.167603,282.508118 
	C970.101379,285.349243 950.348877,279.710846 944.131897,271.587555 
	C932.851746,256.848663 934.004822,238.274643 942.089783,226.413376 
	C942.728149,225.476791 943.333557,224.517731 944.202271,223.302155 
M996.237854,256.963165 
	C1007.942810,251.507278 1006.749023,241.430527 1005.545715,231.000000 
	C998.312744,231.000000 991.193359,230.995361 984.073975,231.001099 
	C973.152344,231.009903 967.340149,236.320572 966.539734,247.012344 
	C966.063293,253.376190 971.407898,260.560425 977.141968,260.965424 
	C983.592651,261.421021 989.809753,260.452118 996.237854,256.963165 
z"/>
<path fill="#0046FF" opacity="1.000000" stroke="none" 
	d="
M787.773926,279.993439 
	C778.011169,279.998688 768.728821,279.998688 759.000000,279.998688 
	C759.000000,277.960754 759.000000,276.341980 759.000000,274.723206 
	C759.000000,251.573715 759.163391,228.422302 758.890625,205.276016 
	C758.818237,199.132446 757.936523,192.899506 750.850830,189.896896 
	C741.919495,186.112106 724.723206,189.900360 719.462341,197.364151 
	C718.735352,198.395615 719.017639,200.215134 719.016235,201.670013 
	C718.993408,225.818741 719.000000,249.967468 719.000000,274.116211 
	C719.000000,275.915070 719.000000,277.713928 719.000000,279.748047 
	C708.234924,279.748047 697.844604,279.748047 687.000000,279.748047 
	C687.000000,277.796112 687.000000,276.010834 687.000000,274.225586 
	C687.000000,245.413635 686.938660,216.601410 687.065613,187.790024 
	C687.084839,183.430374 685.889587,179.909164 683.211182,176.498795 
	C681.968872,174.916946 681.893250,172.418854 681.288696,170.336136 
	C683.119446,169.890762 684.945740,169.082458 686.781616,169.060165 
	C697.067627,168.935226 707.355896,169.000000 717.868164,169.000000 
	C717.868164,171.731613 717.868164,174.022644 717.868164,177.073380 
	C720.831848,175.417496 723.531433,174.332397 725.730957,172.608932 
	C736.915344,163.845154 749.311462,163.583603 762.409546,166.737274 
	C776.620667,170.158936 785.848083,178.547256 789.376282,192.873566 
	C789.762695,194.442902 789.972046,196.097824 789.974304,197.713455 
	C790.010681,223.527588 790.031250,249.341888 789.925171,275.155640 
	C789.918518,276.768738 788.836243,278.377441 787.773926,279.993439 
z"/>
<path fill="#0046FF" opacity="1.000000" stroke="none" 
	d="
M1109.364746,189.020447 
	C1106.882202,189.949219 1104.806519,190.835373 1102.755737,191.775513 
	C1096.106079,194.823959 1093.560303,199.508270 1093.777588,207.273483 
	C1094.406250,229.739716 1094.000000,252.234894 1094.000000,274.718719 
	C1094.000000,276.337921 1094.000000,277.957092 1094.000000,279.784424 
	C1083.614624,279.784424 1073.674438,279.784424 1063.000000,279.784424 
	C1063.000000,278.115326 1063.000000,276.367950 1063.000000,274.620575 
	C1063.000000,247.973083 1063.012939,221.325592 1062.991577,194.678116 
	C1062.985718,187.258789 1062.578491,180.012344 1056.855347,174.188416 
	C1054.879272,172.177628 1056.353760,169.083786 1059.190918,169.052689 
	C1070.312012,168.930771 1081.434937,169.002838 1092.817627,169.002838 
	C1092.817627,172.005600 1092.817627,174.618027 1092.817627,178.407700 
	C1096.407837,175.707291 1099.171997,173.379486 1102.174927,171.417023 
	C1110.563721,165.934784 1119.919922,163.959167 1129.754150,165.081451 
	C1139.045898,166.141800 1147.804321,168.852478 1154.976318,175.423447 
	C1162.154175,181.999741 1165.656128,190.533051 1165.824463,199.751938 
	C1166.304443,226.056534 1165.964600,252.376114 1165.930664,278.689758 
	C1165.930298,278.979828 1165.706177,279.269623 1165.497070,279.775970 
	C1155.298584,279.775970 1145.025146,279.775970 1134.000000,279.775970 
	C1134.000000,278.135162 1134.000000,276.390198 1134.000000,274.645203 
	C1134.000000,251.495193 1134.005981,228.345200 1133.987183,205.195206 
	C1133.985840,203.543701 1133.907837,201.877945 1133.685547,200.243301 
	C1132.154541,188.992462 1120.252808,186.326935 1109.364746,189.020447 
z"/>
<path fill="#0046FF" opacity="1.000000" stroke="none" 
	d="
M629.000000,209.000046 
	C628.667419,200.263016 628.633667,191.996964 627.838867,183.804764 
	C627.563965,180.970657 625.255249,178.376083 624.152344,175.563553 
	C623.536499,173.992981 622.886414,171.977722 623.398987,170.585068 
	C623.736633,169.667648 626.112610,169.084320 627.584229,169.067032 
	C638.202942,168.942200 648.823853,169.000122 659.720764,169.000122 
	C659.720764,206.010025 659.720764,242.699951 659.720764,279.695282 
	C649.682983,279.695282 639.630493,279.695282 629.000000,279.695282 
	C629.000000,256.299774 629.000000,232.899902 629.000000,209.000046 
z"/>
<path fill="#0046FF" opacity="1.000000" stroke="none" 
	d="
M660.999939,137.660217 
	C660.073364,148.342575 651.247375,154.574890 639.203735,153.182663 
	C630.849182,152.216888 624.339722,146.117889 623.026245,135.321075 
	C622.129700,127.950874 627.359436,119.609390 634.799744,116.727562 
	C644.927307,112.804863 656.640991,116.778397 660.018738,126.539345 
	C661.152893,129.817001 660.717834,133.637695 660.999939,137.660217 
z"/>
<path fill="#FFFFFF" opacity="1.000000" stroke="none" 
	d="
M223.744537,242.240997 
	C204.513916,231.052719 185.285339,220.551834 166.666458,209.062881 
	C149.533691,198.490952 134.449341,185.616241 128.003159,165.376572 
	C123.419624,150.985214 127.492073,138.114120 135.422211,126.145920 
	C142.359955,115.675407 152.695938,109.365143 163.988647,104.658333 
	C167.452194,103.214722 171.490234,103.149406 175.700455,103.584023 
	C171.316696,107.371529 166.845596,111.063240 162.565979,114.964973 
	C150.946960,125.558044 149.416901,146.376480 159.897003,159.587021 
	C169.498505,171.690094 182.051590,179.729675 194.961975,187.425934 
	C212.787125,198.051987 230.889038,208.219559 248.593216,219.040344 
	C257.912964,224.736542 266.054413,232.336594 269.286652,243.024399 
	C272.756989,254.499695 273.619629,266.703003 265.403107,276.720734 
	C260.556702,282.629578 254.012421,287.257629 247.794876,291.873260 
	C245.413315,293.641235 241.815765,293.771210 237.475922,295.020905 
	C242.441528,287.288635 246.355164,280.985901 246.163025,272.705841 
	C245.944473,263.288147 240.723938,256.813904 234.931686,250.652390 
	C231.867599,247.392944 227.688248,245.181900 223.744537,242.240997 
z"/>
<path fill="#FFFFFF" opacity="1.000000" stroke="none" 
	d="
M226.278198,176.999847 
	C218.356689,176.104538 214.428406,170.926407 212.099258,164.613693 
	C208.143417,153.892136 209.847260,143.009476 212.374100,132.251862 
	C214.020508,125.242577 212.701309,119.022995 208.024063,113.503807 
	C206.558350,111.774269 205.268021,109.896095 203.214767,107.184395 
	C205.247894,106.868874 206.737396,106.170189 207.899261,106.529854 
	C219.283188,110.053902 230.877899,111.051048 242.788208,111.250328 
	C251.805435,111.401222 260.250549,115.020309 266.565887,122.105957 
	C267.613678,123.281563 268.571075,124.806625 268.860504,126.307106 
	C269.107483,127.587608 268.761383,129.576889 267.887726,130.305222 
	C267.079803,130.978790 265.100403,130.738205 263.856201,130.290634 
	C261.577789,129.471024 259.555145,127.796165 257.244385,127.260078 
	C255.641510,126.888229 253.734726,127.826447 251.963715,128.179321 
	C252.376862,130.016953 252.180206,132.672943 253.326294,133.526962 
	C255.955627,135.486191 259.131744,136.892639 262.280609,137.935425 
	C268.621552,140.035278 275.144196,141.489960 276.413727,149.773773 
	C277.332092,155.766220 270.289215,166.458344 264.373230,166.926422 
	C258.949493,167.355545 256.264191,163.283951 253.833435,159.343048 
	C251.708618,155.898148 250.343140,151.890549 247.802460,148.828217 
	C245.981918,146.633835 242.921951,144.714752 240.150574,144.250259 
	C236.580963,143.652008 233.863602,148.666794 235.139877,153.115051 
	C235.933868,155.882370 236.992889,158.779144 238.696976,161.042603 
	C244.622070,168.912628 236.802094,176.836166 230.209229,176.995605 
	C229.043625,177.023804 227.876755,176.999863 226.278198,176.999847 
z"/>
<path fill="#FFFFFF" opacity="1.000000" stroke="none" 
	d="
M188.006897,269.960815 
	C186.256165,273.108612 184.624603,275.918335 182.856430,278.639282 
	C179.985870,283.056671 180.121887,285.364838 184.803284,287.855804 
	C190.614639,290.948090 196.846893,293.243195 202.852844,295.980286 
	C204.316986,296.647552 205.607315,297.696106 206.977570,298.569336 
	C205.376801,299.710205 203.843552,301.725006 202.164658,301.854706 
	C187.771378,302.966644 173.612701,301.110199 160.329575,295.575500 
	C138.709747,286.567078 123.947815,270.766846 116.774933,248.284164 
	C115.752190,245.078491 115.344063,241.619949 115.112137,238.246780 
	C115.019699,236.902222 116.177467,235.471710 116.766098,234.080353 
	C118.129913,234.839798 119.889549,235.285110 120.786400,236.415176 
	C124.014763,240.482849 126.951187,244.782181 130.000183,248.992355 
	C130.477188,249.651047 130.916473,250.345657 131.457123,250.948395 
	C137.396973,257.570099 139.133423,257.254425 143.301010,249.387985 
	C145.037567,246.110168 147.114609,242.922989 149.527664,240.116653 
	C152.375168,236.805023 154.474716,237.238342 155.682785,241.480148 
	C157.141174,246.600922 157.996414,251.900467 158.983032,257.147003 
	C160.535141,265.400726 158.838760,268.269928 170.059250,264.476715 
	C175.097610,262.773438 180.092270,260.913910 185.203583,259.467407 
	C187.091507,258.933136 189.257431,259.381165 192.332123,259.381165 
	C190.695648,263.293365 189.380203,266.438110 188.006897,269.960815 
z"/>
<path fill="#FFFFFF" opacity="1.000000" stroke="none" 
	d="
M1266.000000,246.959229 
	C1266.000000,214.509171 1266.000000,182.554489 1266.000000,150.056290 
	C1283.499878,150.345444 1300.992065,147.750748 1316.515015,158.769989 
	C1325.587036,165.209869 1329.875122,174.331299 1331.630005,184.546356 
	C1334.147461,199.199265 1334.349609,214.022415 1329.780151,228.436768 
	C1325.305298,242.553497 1315.363770,251.312698 1301.010620,253.799271 
	C1289.735352,255.752609 1278.147949,255.903824 1266.000000,256.913727 
	C1266.000000,252.990234 1266.000000,250.222412 1266.000000,246.959229 
z"/>
<path fill="#FFFFFF" opacity="1.000000" stroke="none" 
	d="
M995.860840,257.022888 
	C989.809753,260.452118 983.592651,261.421021 977.141968,260.965424 
	C971.407898,260.560425 966.063293,253.376190 966.539734,247.012344 
	C967.340149,236.320572 973.152344,231.009903 984.073975,231.001099 
	C991.193359,230.995361 998.312744,231.000000 1005.545715,231.000000 
	C1006.749023,241.430527 1007.942810,251.507278 995.860840,257.022888 
z"/>
</svg>